<?xml version="1.0" encoding="utf-8"?>
<svg xmlns="http://www.w3.org/2000/svg"
     width="600" height="600"
     viewBox="0 0 600 600">
  <rect width="100%" height="100%" fill="white"/>
  <g fill="none" stroke="black" stroke-width="2.0">
    <path d="M 446.000,428.000 C 451.200,426.800 449.800,427.200 455.000,428.000 C 460.200,428.800 455.400,427.200 459.000,430.000 C 462.600,432.800 461.600,432.200 464.000,435.000 C 466.400,437.800 464.600,435.400 465.000,437.000 C 465.400,438.600 464.600,437.800 465.000,439.000 C 465.400,440.200 465.600,437.600 466.000,440.000 C 466.400,442.400 466.400,442.600 466.000,445.000 C 465.600,447.400 465.400,444.800 465.000,446.000 C 464.600,447.200 465.400,446.400 465.000,448.000 C 464.600,449.600 466.800,446.800 464.000,450.000 C 461.200,453.200 461.200,453.200 458.000,456.000 C 454.800,458.800 458.400,456.600 456.000,457.000 C 453.600,457.400 454.000,456.600 452.000,457.000 C 450.000,457.400 452.200,458.000 451.000,458.000 C 449.800,458.000 451.000,457.400 449.000,457.000 C 447.000,456.600 448.800,457.800 446.000,457.000 C 443.200,456.200 444.800,457.000 442.000,455.000 C 439.200,453.000 440.200,453.600 439.000,452.000 C 437.800,450.400 440.200,453.000 439.000,451.000 C 437.800,449.000 437.200,451.800 436.000,447.000 C 434.800,442.200 435.600,442.600 436.000,439.000 C 436.400,435.400 436.600,439.200 437.000,438.000 C 437.400,436.800 435.400,438.800 437.000,436.000 C 438.600,433.200 439.000,433.000 441.000,431.000 C 443.000,429.000 440.000,432.200 442.000,431.000 C 444.000,429.800 440.800,429.200 446.000,428.000 Z"/>
    <path d="M 283.000,429.000 C 281.800,425.400 225.600,428.400 284.000,428.000 C 342.400,427.600 370.600,427.600 429.000,428.000 C 487.400,428.400 430.800,426.600 430.000,429.000 C 429.200,431.400 428.200,430.800 427.000,434.000 C 425.800,437.200 427.400,435.400 427.000,437.000 C 426.600,438.600 426.400,433.600 426.000,438.000 C 425.600,442.400 425.600,443.600 426.000,448.000 C 426.400,452.400 426.600,447.800 427.000,449.000 C 427.400,450.200 425.800,447.800 427.000,451.000 C 428.200,454.200 429.200,454.200 430.000,457.000 C 430.800,459.800 487.400,457.600 429.000,458.000 C 370.600,458.400 342.400,458.800 284.000,458.000 C 225.600,457.200 282.600,457.600 283.000,456.000 C 283.400,454.400 284.200,455.600 285.000,454.000 C 285.800,452.400 284.200,454.400 285.000,452.000 C 285.800,449.600 286.200,454.000 287.000,448.000 C 287.800,442.000 288.600,444.600 287.000,437.000 C 285.400,429.400 284.200,432.600 283.000,429.000 Z"/>
    <path d="M 258.000,428.000 C 263.200,427.200 261.800,427.200 267.000,428.000 C 272.200,428.800 268.200,428.000 271.000,430.000 C 273.800,432.000 272.800,431.400 274.000,433.000 C 275.200,434.600 272.800,432.000 274.000,434.000 C 275.200,436.000 275.800,432.800 277.000,438.000 C 278.200,443.200 277.800,441.800 277.000,447.000 C 276.200,452.200 277.400,447.800 275.000,451.000 C 272.600,454.200 274.200,452.600 271.000,455.000 C 267.800,457.400 270.200,456.200 267.000,457.000 C 263.800,457.800 265.000,456.600 263.000,457.000 C 261.000,457.400 262.800,458.000 262.000,458.000 C 261.200,458.000 262.600,457.400 261.000,457.000 C 259.400,456.600 260.800,457.800 258.000,457.000 C 255.200,456.200 257.600,457.800 254.000,455.000 C 250.400,452.200 251.400,452.800 249.000,450.000 C 246.600,447.200 248.400,450.000 248.000,448.000 C 247.600,446.000 248.400,446.600 248.000,445.000 C 247.600,443.400 247.000,447.200 247.000,444.000 C 247.000,440.800 245.200,442.600 248.000,437.000 C 250.800,431.400 250.000,433.600 254.000,430.000 C 258.000,426.400 252.800,428.800 258.000,428.000 Z"/>
    <path d="M 238.000,436.000 C 237.600,441.600 237.600,443.400 238.000,449.000 C 238.400,454.600 238.600,448.800 239.000,450.000 C 239.400,451.200 238.200,449.600 239.000,452.000 C 239.800,454.400 239.000,453.200 241.000,456.000 C 243.000,458.800 242.800,457.400 244.000,459.000 C 245.200,460.600 243.200,459.200 244.000,460.000 C 244.800,460.800 244.000,459.400 246.000,461.000 C 248.000,462.600 246.200,462.000 249.000,464.000 C 251.800,466.000 250.600,465.200 253.000,466.000 C 255.400,466.800 253.800,465.600 255.000,466.000 C 256.200,466.400 175.200,466.600 256.000,467.000 C 336.800,467.400 376.200,467.400 457.000,467.000 C 537.800,466.600 456.800,466.400 458.000,466.000 C 459.200,465.600 457.600,466.800 460.000,466.000 C 462.400,465.200 460.000,466.800 464.000,464.000 C 468.000,461.200 467.600,461.400 470.000,459.000 C 472.400,456.600 469.200,459.200 470.000,458.000 C 470.800,456.800 470.000,459.200 472.000,456.000 C 474.000,452.800 473.800,454.000 475.000,450.000 C 476.200,446.000 474.600,448.000 475.000,446.000 C 475.400,444.000 475.600,447.400 476.000,445.000 C 476.400,442.600 476.400,442.400 476.000,440.000 C 475.600,437.600 475.400,441.000 475.000,439.000 C 474.600,437.000 476.200,439.000 475.000,435.000 C 473.800,431.000 474.400,432.600 472.000,429.000 C 469.600,425.400 470.200,427.600 469.000,426.000 C 467.800,424.400 469.800,425.800 469.000,425.000 C 468.200,424.200 469.000,425.600 467.000,424.000 C 465.000,422.400 466.800,423.000 464.000,421.000 C 461.200,419.000 462.400,419.800 460.000,419.000 C 457.600,418.200 459.200,419.400 458.000,419.000 C 456.800,418.600 537.400,418.400 457.000,418.000 C 376.600,417.600 337.400,417.600 257.000,418.000 C 176.600,418.400 257.600,418.600 256.000,419.000 C 254.400,419.400 255.800,417.800 253.000,419.000 C 250.200,420.200 251.000,420.800 249.000,422.000 C 247.000,423.200 251.200,419.200 248.000,422.000 C 244.800,424.800 244.600,424.600 241.000,429.000 C 237.400,433.400 239.800,430.600 239.000,433.000 C 238.200,435.400 239.400,433.800 239.000,435.000 C 238.600,436.200 238.400,430.400 238.000,436.000 Z"/>
    <path d="M 112.000,423.000 C 116.000,418.600 117.600,417.000 122.000,413.000 C 126.400,409.000 121.800,413.800 123.000,413.000 C 124.200,412.200 122.600,412.600 125.000,411.000 C 127.400,409.400 126.600,409.800 129.000,409.000 C 131.400,408.200 128.600,409.800 131.000,409.000 C 133.400,408.200 132.200,407.800 135.000,407.000 C 137.800,406.200 136.400,407.400 138.000,407.000 C 139.600,406.600 125.000,406.400 139.000,406.000 C 153.000,405.600 159.000,405.600 173.000,406.000 C 187.000,406.400 173.600,389.400 174.000,407.000 C 174.400,424.600 173.600,432.400 174.000,450.000 C 174.400,467.600 174.600,449.000 175.000,451.000 C 175.400,453.000 174.600,453.000 175.000,455.000 C 175.400,457.000 175.600,454.800 176.000,456.000 C 176.400,457.200 174.800,454.800 176.000,458.000 C 177.200,461.200 169.800,453.600 179.000,464.000 C 188.200,474.400 191.400,475.600 199.000,484.000 C 206.600,492.400 222.400,484.600 198.000,485.000 C 173.600,485.400 162.400,485.400 138.000,485.000 C 113.600,484.600 138.600,484.400 137.000,484.000 C 135.400,483.600 135.600,484.400 134.000,484.000 C 132.400,483.600 134.200,483.400 133.000,483.000 C 131.800,482.600 135.000,484.600 131.000,483.000 C 127.000,481.400 129.400,483.400 123.000,479.000 C 116.600,474.600 118.200,475.200 115.000,472.000 C 111.800,468.800 117.000,473.800 115.000,471.000 C 113.000,468.200 112.800,469.000 110.000,465.000 C 107.200,461.000 108.800,463.400 108.000,461.000 C 107.200,458.600 108.800,461.400 108.000,459.000 C 107.200,456.600 106.800,458.200 106.000,455.000 C 105.200,451.800 106.400,453.000 106.000,451.000 C 105.600,449.000 105.400,453.600 105.000,450.000 C 104.600,446.400 104.600,445.600 105.000,442.000 C 105.400,438.400 105.600,443.400 106.000,441.000 C 106.400,438.600 105.600,438.400 106.000,436.000 C 106.400,433.600 106.200,437.400 107.000,435.000 C 107.800,432.600 106.800,433.600 108.000,430.000 C 109.200,426.400 108.400,428.400 110.000,426.000 C 111.600,423.600 111.200,425.200 112.000,424.000 C 112.800,422.800 108.000,427.400 112.000,423.000 Z"/>
    <path d="M 225.000,438.000 C 225.400,434.000 225.600,439.000 226.000,437.000 C 226.400,435.000 225.600,435.000 226.000,433.000 C 226.400,431.000 226.600,433.600 227.000,432.000 C 227.400,430.400 225.400,433.400 227.000,429.000 C 228.600,424.600 228.600,425.000 231.000,421.000 C 233.400,417.000 232.200,420.200 233.000,419.000 C 233.800,417.800 229.400,422.000 233.000,418.000 C 236.600,414.000 238.000,412.600 242.000,409.000 C 246.000,405.400 240.600,410.600 243.000,409.000 C 245.400,407.400 245.200,407.000 248.000,405.000 C 250.800,403.000 248.400,404.400 250.000,404.000 C 251.600,403.600 250.800,404.400 252.000,404.000 C 253.200,403.600 251.800,403.400 253.000,403.000 C 254.200,402.600 253.800,403.400 255.000,403.000 C 256.200,402.600 254.400,402.400 256.000,402.000 C 257.600,401.600 257.400,402.400 259.000,402.000 C 260.600,401.600 180.000,401.400 260.000,401.000 C 340.000,400.600 379.000,400.600 459.000,401.000 C 539.000,401.400 458.400,401.600 460.000,402.000 C 461.600,402.400 461.400,401.600 463.000,402.000 C 464.600,402.400 462.800,402.600 464.000,403.000 C 465.200,403.400 464.800,402.600 466.000,403.000 C 467.200,403.400 465.800,403.600 467.000,404.000 C 468.200,404.400 467.400,403.600 469.000,404.000 C 470.600,404.400 469.400,403.800 471.000,405.000 C 472.600,406.200 470.600,405.400 473.000,407.000 C 475.400,408.600 471.800,404.600 477.000,409.000 C 482.200,413.400 482.400,414.000 486.000,418.000 C 489.600,422.000 485.200,417.800 486.000,419.000 C 486.800,420.200 485.600,417.000 488.000,421.000 C 490.400,425.000 490.400,424.600 492.000,429.000 C 493.600,433.400 491.600,430.400 492.000,432.000 C 492.400,433.600 492.600,431.000 493.000,433.000 C 493.400,435.000 492.600,435.000 493.000,437.000 C 493.400,439.000 493.600,434.000 494.000,438.000 C 494.400,442.000 494.400,443.000 494.000,447.000 C 493.600,451.000 493.400,446.000 493.000,448.000 C 492.600,450.000 493.400,450.000 493.000,452.000 C 492.600,454.000 492.400,451.400 492.000,453.000 C 491.600,454.600 493.600,451.600 492.000,456.000 C 490.400,460.400 490.400,460.000 488.000,464.000 C 485.600,468.000 486.800,464.800 486.000,466.000 C 485.200,467.200 490.000,462.600 486.000,467.000 C 482.000,471.400 480.400,473.000 476.000,477.000 C 471.600,481.000 476.200,476.200 475.000,477.000 C 473.800,477.800 475.400,477.400 473.000,479.000 C 470.600,480.600 471.400,480.200 469.000,481.000 C 466.600,481.800 468.200,480.600 467.000,481.000 C 465.800,481.400 468.400,481.200 466.000,482.000 C 463.600,482.800 463.400,482.200 461.000,483.000 C 458.600,483.800 540.400,483.600 460.000,484.000 C 379.600,484.400 340.400,484.400 260.000,484.000 C 179.600,483.600 261.000,483.400 259.000,483.000 C 257.000,482.600 257.800,483.800 255.000,483.000 C 252.200,482.200 254.000,481.800 252.000,481.000 C 250.000,480.200 252.400,481.800 250.000,481.000 C 247.600,480.200 248.400,480.600 246.000,479.000 C 243.600,477.400 245.200,477.800 244.000,477.000 C 242.800,476.200 247.400,481.000 243.000,477.000 C 238.600,473.000 237.000,471.400 233.000,467.000 C 229.000,462.600 233.800,467.200 233.000,466.000 C 232.200,464.800 233.400,468.000 231.000,464.000 C 228.600,460.000 228.600,460.400 227.000,456.000 C 225.400,451.600 227.400,454.600 227.000,453.000 C 226.600,451.400 226.400,454.000 226.000,452.000 C 225.600,450.000 226.400,450.000 226.000,448.000 C 225.600,446.000 225.400,451.000 225.000,447.000 C 224.600,443.000 224.600,442.000 225.000,438.000 Z"/>
    <path d="M 164.000,380.000 C 166.000,378.800 164.400,380.400 166.000,380.000 C 167.600,379.600 165.200,378.200 168.000,379.000 C 170.800,379.800 170.600,380.000 173.000,382.000 C 175.400,384.000 173.600,378.800 174.000,384.000 C 174.400,389.200 174.400,390.200 174.000,395.000 C 173.600,399.800 178.200,395.600 173.000,396.000 C 167.800,396.400 166.200,396.400 161.000,396.000 C 155.800,395.600 160.400,399.400 160.000,395.000 C 159.600,390.600 159.600,389.800 160.000,385.000 C 160.400,380.200 159.400,385.000 161.000,383.000 C 162.600,381.000 162.000,381.200 164.000,380.000 Z"/>
    <path d="M 272.000,375.000 C 272.400,368.600 205.000,374.400 273.000,374.000 C 341.000,373.600 373.600,373.200 442.000,374.000 C 510.400,374.800 443.200,369.600 444.000,376.000 C 444.800,382.400 444.400,384.000 444.000,390.000 C 443.600,396.000 511.400,390.600 443.000,391.000 C 374.600,391.400 341.400,391.400 273.000,391.000 C 204.600,390.600 272.400,396.400 272.000,390.000 C 271.600,383.600 271.600,381.400 272.000,375.000 Z"/>
    <path d="M 257.000,322.000 C 257.800,317.600 169.400,320.800 259.000,320.000 C 348.600,319.200 391.000,319.200 481.000,320.000 C 571.000,320.800 482.400,320.400 484.000,322.000 C 485.600,323.600 484.600,322.400 485.000,324.000 C 485.400,325.600 484.600,324.800 485.000,326.000 C 485.400,327.200 485.600,325.000 486.000,327.000 C 486.400,329.000 485.600,329.000 486.000,331.000 C 486.400,333.000 486.600,329.600 487.000,332.000 C 487.400,334.400 486.600,334.600 487.000,337.000 C 487.400,339.400 487.600,336.000 488.000,338.000 C 488.400,340.000 487.600,340.000 488.000,342.000 C 488.400,344.000 488.600,341.000 489.000,343.000 C 489.400,345.000 488.600,345.000 489.000,347.000 C 489.400,349.000 489.600,346.000 490.000,348.000 C 490.400,350.000 489.600,350.000 490.000,352.000 C 490.400,354.000 490.200,349.000 491.000,353.000 C 491.800,357.000 492.400,357.600 492.000,362.000 C 491.600,366.400 584.800,363.200 490.000,364.000 C 395.200,364.800 349.400,364.400 255.000,364.000 C 160.600,363.600 254.400,366.200 254.000,363.000 C 253.600,359.800 253.600,359.200 254.000,356.000 C 254.400,352.800 254.600,359.800 255.000,355.000 C 255.400,350.200 254.600,348.800 255.000,344.000 C 255.400,339.200 255.600,347.800 256.000,343.000 C 256.400,338.200 255.600,336.800 256.000,332.000 C 256.400,327.200 256.600,335.000 257.000,331.000 C 257.400,327.000 256.200,326.400 257.000,322.000 Z"/>
    <path d="M 418.000,297.000 C 418.800,291.400 398.400,295.800 420.000,295.000 C 441.600,294.200 450.400,294.200 472.000,295.000 C 493.600,295.800 473.200,291.400 474.000,297.000 C 474.800,302.600 474.400,303.800 474.000,309.000 C 473.600,314.200 495.000,309.600 473.000,310.000 C 451.000,310.400 441.000,310.400 419.000,310.000 C 397.000,309.600 418.400,314.200 418.000,309.000 C 417.600,303.800 417.200,302.600 418.000,297.000 Z"/>
    <path d="M 319.000,293.000 C 319.400,286.200 295.600,292.400 320.000,292.000 C 344.400,291.600 355.200,290.800 380.000,292.000 C 404.800,293.200 380.800,290.200 382.000,295.000 C 383.200,299.800 382.200,300.000 383.000,304.000 C 383.800,308.000 383.600,303.400 384.000,305.000 C 384.400,306.600 383.600,306.400 384.000,308.000 C 384.400,309.600 385.000,308.200 385.000,309.000 C 385.000,309.800 410.000,309.600 384.000,310.000 C 358.000,310.400 346.000,310.400 320.000,310.000 C 294.000,309.600 319.400,315.800 319.000,309.000 C 318.600,302.200 318.600,299.800 319.000,293.000 Z"/>
    <path d="M 259.000,296.000 C 259.800,290.000 241.000,293.600 261.000,292.000 C 281.000,290.400 289.400,291.600 309.000,292.000 C 328.600,292.400 309.600,286.200 310.000,293.000 C 310.400,299.800 310.400,302.200 310.000,309.000 C 309.600,315.800 329.400,309.600 309.000,310.000 C 288.600,310.400 279.400,310.400 259.000,310.000 C 238.600,309.600 258.000,310.200 258.000,309.000 C 258.000,307.800 258.600,312.200 259.000,307.000 C 259.400,301.800 258.200,302.000 259.000,296.000 Z"/>
    <path d="M 153.000,249.000 C 164.600,248.600 169.400,248.600 181.000,249.000 C 192.600,249.400 181.600,244.400 182.000,250.000 C 182.400,255.600 182.400,257.400 182.000,263.000 C 181.600,268.600 181.400,256.800 181.000,264.000 C 180.600,271.200 181.400,273.800 181.000,281.000 C 180.600,288.200 180.400,275.600 180.000,282.000 C 179.600,288.400 180.400,290.600 180.000,297.000 C 179.600,303.400 179.400,291.200 179.000,298.000 C 178.600,304.800 179.400,307.200 179.000,314.000 C 178.600,320.800 178.400,307.800 178.000,315.000 C 177.600,322.200 178.400,324.800 178.000,332.000 C 177.600,339.200 177.400,326.200 177.000,333.000 C 176.600,339.800 177.400,342.200 177.000,349.000 C 176.600,355.800 176.400,343.200 176.000,350.000 C 175.600,356.800 176.400,359.200 176.000,366.000 C 175.600,372.800 175.400,365.400 175.000,367.000 C 174.600,368.600 175.400,368.400 175.000,370.000 C 174.600,371.600 174.800,371.000 174.000,371.000 C 173.200,371.000 177.800,370.400 173.000,370.000 C 168.200,369.600 166.800,369.600 162.000,370.000 C 157.200,370.400 162.200,371.000 161.000,371.000 C 159.800,371.000 159.800,376.000 159.000,370.000 C 158.200,364.000 159.400,362.000 159.000,356.000 C 158.600,350.000 158.400,361.800 158.000,355.000 C 157.600,348.200 158.400,345.800 158.000,339.000 C 157.600,332.200 157.400,345.600 157.000,338.000 C 156.600,330.400 157.400,327.600 157.000,320.000 C 156.600,312.400 156.400,325.400 156.000,319.000 C 155.600,312.600 156.400,310.400 156.000,304.000 C 155.600,297.600 155.400,309.800 155.000,303.000 C 154.600,296.200 155.400,293.800 155.000,287.000 C 154.600,280.200 154.400,292.800 154.000,286.000 C 153.600,279.200 154.400,276.800 154.000,270.000 C 153.600,263.200 153.400,275.800 153.000,269.000 C 152.600,262.200 153.400,259.800 153.000,253.000 C 152.600,246.200 152.400,253.200 152.000,252.000 C 151.600,250.800 151.600,251.200 152.000,250.000 C 152.400,248.800 141.400,249.400 153.000,249.000 Z"/>
    <path d="M 320.000,209.000 C 336.800,208.600 343.800,208.200 361.000,209.000 C 378.200,209.800 361.800,209.400 363.000,211.000 C 364.200,212.600 363.600,210.600 364.000,213.000 C 364.400,215.400 363.600,215.000 364.000,217.000 C 364.400,219.000 364.600,216.400 365.000,218.000 C 365.400,219.600 364.600,219.400 365.000,221.000 C 365.400,222.600 365.200,218.000 366.000,222.000 C 366.800,226.000 366.200,227.000 367.000,231.000 C 367.800,235.000 367.600,230.400 368.000,232.000 C 368.400,233.600 367.600,233.400 368.000,235.000 C 368.400,236.600 368.600,234.000 369.000,236.000 C 369.400,238.000 368.600,238.000 369.000,240.000 C 369.400,242.000 369.600,239.400 370.000,241.000 C 370.400,242.600 369.600,242.400 370.000,244.000 C 370.400,245.600 370.600,243.000 371.000,245.000 C 371.400,247.000 370.600,247.000 371.000,249.000 C 371.400,251.000 371.600,248.400 372.000,250.000 C 372.400,251.600 371.600,251.400 372.000,253.000 C 372.400,254.600 372.200,250.000 373.000,254.000 C 373.800,258.000 373.200,259.000 374.000,263.000 C 374.800,267.000 374.600,262.400 375.000,264.000 C 375.400,265.600 374.600,265.400 375.000,267.000 C 375.400,268.600 375.600,266.000 376.000,268.000 C 376.400,270.000 375.600,270.000 376.000,272.000 C 376.400,274.000 376.600,271.400 377.000,273.000 C 377.400,274.600 376.600,274.400 377.000,276.000 C 377.400,277.600 377.600,275.000 378.000,277.000 C 378.400,279.000 378.400,279.000 378.000,281.000 C 377.600,283.000 399.800,281.600 377.000,282.000 C 354.200,282.400 344.200,282.800 321.000,282.000 C 297.800,281.200 319.800,308.800 319.000,280.000 C 318.200,251.200 318.600,238.400 319.000,210.000 C 319.400,181.600 303.200,209.400 320.000,209.000 Z"/>
    <path d="M 269.000,209.000 C 285.800,208.200 292.600,208.600 309.000,209.000 C 325.400,209.400 309.600,181.600 310.000,210.000 C 310.400,238.400 310.800,251.200 310.000,280.000 C 309.200,308.800 327.200,281.200 308.000,282.000 C 288.800,282.800 280.800,282.400 262.000,282.000 C 243.200,281.600 261.400,285.000 261.000,281.000 C 260.600,277.000 260.600,276.000 261.000,272.000 C 261.400,268.000 261.600,275.400 262.000,271.000 C 262.400,266.600 261.600,265.400 262.000,261.000 C 262.400,256.600 262.600,264.400 263.000,260.000 C 263.400,255.600 262.600,254.400 263.000,250.000 C 263.400,245.600 263.600,253.800 264.000,249.000 C 264.400,244.200 263.600,242.800 264.000,238.000 C 264.400,233.200 264.600,241.800 265.000,237.000 C 265.400,232.200 264.600,230.800 265.000,226.000 C 265.400,221.200 265.600,229.800 266.000,225.000 C 266.400,220.200 265.600,218.800 266.000,214.000 C 266.400,209.200 266.600,214.200 267.000,213.000 C 267.400,211.800 266.200,212.600 267.000,211.000 C 267.800,209.400 252.200,209.800 269.000,209.000 Z"/>
    <path d="M 167.000,128.000 C 165.000,128.000 167.000,127.000 165.000,129.000 C 163.000,131.000 163.200,125.400 162.000,133.000 C 160.800,140.600 161.200,140.800 162.000,148.000 C 162.800,155.200 162.400,149.400 164.000,151.000 C 165.600,152.600 164.000,151.600 166.000,152.000 C 168.000,152.400 167.000,152.400 169.000,152.000 C 171.000,151.600 169.800,152.200 171.000,151.000 C 172.200,149.800 171.600,157.000 172.000,149.000 C 172.400,141.000 172.800,139.000 172.000,131.000 C 171.200,123.000 172.000,130.200 170.000,129.000 C 168.000,127.800 169.000,128.000 167.000,128.000 Z"/>
    <path d="M 196.000,123.000 C 195.600,121.000 195.400,122.400 197.000,122.000 C 198.600,121.600 198.400,121.600 200.000,122.000 C 201.600,122.400 199.400,122.600 201.000,123.000 C 202.600,123.400 201.200,122.200 204.000,123.000 C 206.800,123.800 204.800,124.200 208.000,125.000 C 211.200,125.800 208.800,124.200 212.000,125.000 C 215.200,125.800 213.200,126.200 216.000,127.000 C 218.800,127.800 217.400,126.600 219.000,127.000 C 220.600,127.400 218.400,127.600 220.000,128.000 C 221.600,128.400 221.400,127.600 223.000,128.000 C 224.600,128.400 222.400,128.600 224.000,129.000 C 225.600,129.400 225.400,128.600 227.000,129.000 C 228.600,129.400 226.400,129.600 228.000,130.000 C 229.600,130.400 229.400,129.600 231.000,130.000 C 232.600,130.400 228.800,130.200 232.000,131.000 C 235.200,131.800 234.600,130.800 239.000,132.000 C 243.400,133.200 238.600,132.800 243.000,134.000 C 247.400,135.200 246.800,134.200 250.000,135.000 C 253.200,135.800 249.800,135.600 251.000,136.000 C 252.200,136.400 250.600,135.200 253.000,136.000 C 255.400,136.800 252.600,134.400 257.000,138.000 C 261.400,141.600 260.800,141.000 264.000,145.000 C 267.200,149.000 263.800,146.000 265.000,148.000 C 266.200,150.000 264.600,146.000 267.000,150.000 C 269.400,154.000 267.800,152.800 271.000,158.000 C 274.200,163.200 273.000,159.800 275.000,163.000 C 277.000,166.200 274.800,164.000 276.000,166.000 C 277.200,168.000 276.800,166.000 278.000,168.000 C 279.200,170.000 277.000,167.800 279.000,171.000 C 281.000,174.200 281.000,172.800 283.000,176.000 C 285.000,179.200 282.800,177.000 284.000,179.000 C 285.200,181.000 284.800,179.000 286.000,181.000 C 287.200,183.000 285.800,182.000 287.000,184.000 C 288.200,186.000 287.800,184.000 289.000,186.000 C 290.200,188.000 288.800,187.000 290.000,189.000 C 291.200,191.000 291.200,189.800 292.000,191.000 C 292.800,192.200 291.200,190.800 292.000,192.000 C 292.800,193.200 292.400,191.600 294.000,194.000 C 295.600,196.400 295.600,196.000 296.000,198.000 C 296.400,200.000 306.200,198.600 295.000,199.000 C 283.800,199.400 282.000,197.400 268.000,199.000 C 254.000,200.600 265.600,204.600 260.000,203.000 C 254.400,201.400 258.000,201.400 254.000,195.000 C 250.000,188.600 252.400,191.000 250.000,187.000 C 247.600,183.000 250.000,188.200 248.000,185.000 C 246.000,181.800 247.000,182.200 245.000,179.000 C 243.000,175.800 244.200,179.000 243.000,177.000 C 241.800,175.000 244.000,177.200 242.000,174.000 C 240.000,170.800 240.000,171.000 238.000,169.000 C 236.000,167.000 238.200,169.800 237.000,169.000 C 235.800,168.200 237.400,168.600 235.000,167.000 C 232.600,165.400 233.800,165.800 231.000,165.000 C 228.200,164.200 229.600,165.400 228.000,165.000 C 226.400,164.600 228.600,164.400 227.000,164.000 C 225.400,163.600 225.600,164.400 224.000,164.000 C 222.400,163.600 224.600,163.400 223.000,163.000 C 221.400,162.600 221.600,163.400 220.000,163.000 C 218.400,162.600 221.000,162.400 219.000,162.000 C 217.000,161.600 217.000,162.400 215.000,162.000 C 213.000,161.600 215.600,161.400 214.000,161.000 C 212.400,160.600 212.600,161.400 211.000,161.000 C 209.400,160.600 211.600,160.400 210.000,160.000 C 208.400,159.600 208.600,160.400 207.000,160.000 C 205.400,159.600 208.000,159.400 206.000,159.000 C 204.000,158.600 204.000,159.400 202.000,159.000 C 200.000,158.600 202.200,158.400 201.000,158.000 C 199.800,157.600 200.200,158.400 199.000,158.000 C 197.800,157.600 198.400,163.000 198.000,157.000 C 197.600,151.000 197.600,149.000 198.000,143.000 C 198.400,137.000 198.600,146.800 199.000,142.000 C 199.400,137.200 199.400,135.800 199.000,131.000 C 198.600,126.200 198.400,131.600 198.000,130.000 C 197.600,128.400 198.800,129.800 198.000,127.000 C 197.200,124.200 196.400,125.000 196.000,123.000 Z"/>
    <path d="M 163.000,114.000 C 165.800,113.600 166.200,113.600 169.000,114.000 C 171.800,114.400 168.400,114.600 170.000,115.000 C 171.600,115.400 171.400,114.600 173.000,115.000 C 174.600,115.400 172.400,115.600 174.000,116.000 C 175.600,116.400 175.000,115.600 177.000,116.000 C 179.000,116.400 175.400,113.800 179.000,117.000 C 182.600,120.200 182.400,119.600 186.000,124.000 C 189.600,128.400 187.200,125.200 188.000,128.000 C 188.800,130.800 187.600,129.400 188.000,131.000 C 188.400,132.600 188.600,127.200 189.000,132.000 C 189.400,136.800 189.400,138.200 189.000,143.000 C 188.600,147.800 188.400,136.800 188.000,144.000 C 187.600,151.200 188.400,153.800 188.000,161.000 C 187.600,168.200 187.400,155.200 187.000,162.000 C 186.600,168.800 187.400,171.200 187.000,178.000 C 186.600,184.800 186.400,172.200 186.000,179.000 C 185.600,185.800 186.400,188.200 186.000,195.000 C 185.600,201.800 185.400,189.200 185.000,196.000 C 184.600,202.800 185.400,205.200 185.000,212.000 C 184.600,218.800 184.400,206.200 184.000,213.000 C 183.600,219.800 184.400,222.200 184.000,229.000 C 183.600,235.800 183.400,226.400 183.000,230.000 C 182.600,233.600 183.400,234.400 183.000,238.000 C 182.600,241.600 194.000,238.600 182.000,239.000 C 170.000,239.400 165.400,240.200 153.000,239.000 C 140.600,237.800 151.400,237.600 151.000,236.000 C 150.600,234.400 152.000,235.800 152.000,235.000 C 152.000,234.200 151.400,240.800 151.000,234.000 C 150.600,227.200 151.400,224.800 151.000,218.000 C 150.600,211.200 150.400,223.800 150.000,217.000 C 149.600,210.200 150.400,207.800 150.000,201.000 C 149.600,194.200 149.400,206.800 149.000,200.000 C 148.600,193.200 149.400,190.800 149.000,184.000 C 148.600,177.200 148.400,189.400 148.000,183.000 C 147.600,176.600 148.400,174.400 148.000,168.000 C 147.600,161.600 147.400,174.200 147.000,167.000 C 146.600,159.800 147.400,157.200 147.000,150.000 C 146.600,142.800 146.400,157.000 146.000,149.000 C 145.600,141.000 145.200,138.800 146.000,130.000 C 146.800,121.200 147.200,129.000 148.000,127.000 C 148.800,125.000 146.000,128.200 148.000,125.000 C 150.000,121.800 150.600,121.400 153.000,119.000 C 155.400,116.600 151.600,120.600 154.000,119.000 C 156.400,117.400 155.800,116.600 159.000,115.000 C 162.200,113.400 160.400,115.400 162.000,115.000 C 163.600,114.600 160.200,114.400 163.000,114.000 Z"/>
    <path d="M 148.000,110.000 C 145.200,112.400 144.400,113.200 142.000,116.000 C 139.600,118.800 142.800,115.800 142.000,117.000 C 141.200,118.200 141.600,116.600 140.000,119.000 C 138.400,121.400 139.200,119.400 138.000,123.000 C 136.800,126.600 137.800,125.600 137.000,128.000 C 136.200,130.400 136.400,121.000 136.000,129.000 C 135.600,137.000 135.600,140.000 136.000,148.000 C 136.400,156.000 136.600,142.600 137.000,149.000 C 137.400,155.400 136.600,157.600 137.000,164.000 C 137.400,170.400 137.600,157.800 138.000,165.000 C 138.400,172.200 137.600,174.800 138.000,182.000 C 138.400,189.200 138.600,176.200 139.000,183.000 C 139.400,189.800 138.600,192.200 139.000,199.000 C 139.400,205.800 139.600,193.200 140.000,200.000 C 140.400,206.800 139.600,209.200 140.000,216.000 C 140.400,222.800 140.600,210.200 141.000,217.000 C 141.400,223.800 140.600,226.200 141.000,233.000 C 141.400,239.800 141.600,226.800 142.000,234.000 C 142.400,241.200 141.600,243.800 142.000,251.000 C 142.400,258.200 142.600,245.200 143.000,252.000 C 143.400,258.800 142.600,261.200 143.000,268.000 C 143.400,274.800 143.600,262.200 144.000,269.000 C 144.400,275.800 143.600,278.200 144.000,285.000 C 144.400,291.800 144.600,279.200 145.000,286.000 C 145.400,292.800 144.600,295.200 145.000,302.000 C 145.400,308.800 145.600,296.200 146.000,303.000 C 146.400,309.800 145.600,312.200 146.000,319.000 C 146.400,325.800 146.600,313.200 147.000,320.000 C 147.400,326.800 146.600,329.200 147.000,336.000 C 147.400,342.800 147.600,329.800 148.000,337.000 C 148.400,344.200 147.600,346.800 148.000,354.000 C 148.400,361.200 148.600,348.200 149.000,355.000 C 149.400,361.800 148.600,364.200 149.000,371.000 C 149.400,377.800 149.600,362.400 150.000,372.000 C 150.400,381.600 150.400,385.400 150.000,395.000 C 149.600,404.600 153.400,395.600 149.000,396.000 C 144.600,396.400 143.400,395.600 139.000,396.000 C 134.600,396.400 140.000,396.600 138.000,397.000 C 136.000,397.400 136.000,396.600 134.000,397.000 C 132.000,397.400 134.600,397.600 133.000,398.000 C 131.400,398.400 131.600,397.600 130.000,398.000 C 128.400,398.400 130.200,398.600 129.000,399.000 C 127.800,399.400 131.000,397.400 127.000,399.000 C 123.000,400.600 124.600,399.400 119.000,403.000 C 113.400,406.600 115.800,406.000 113.000,408.000 C 110.200,410.000 114.400,406.000 112.000,408.000 C 109.600,410.000 109.000,410.600 107.000,413.000 C 105.000,415.400 109.000,411.200 107.000,414.000 C 105.000,416.800 105.200,415.200 102.000,420.000 C 98.800,424.800 100.200,422.800 99.000,426.000 C 97.800,429.200 99.400,426.800 99.000,428.000 C 98.600,429.200 98.400,427.800 98.000,429.000 C 97.600,430.200 98.800,428.600 98.000,431.000 C 97.200,433.400 96.800,431.000 96.000,435.000 C 95.200,439.000 96.400,438.200 96.000,441.000 C 95.600,443.800 95.400,438.800 95.000,442.000 C 94.600,445.200 94.600,445.800 95.000,449.000 C 95.400,452.200 95.600,447.200 96.000,450.000 C 96.400,452.800 95.600,453.200 96.000,456.000 C 96.400,458.800 96.600,455.400 97.000,457.000 C 97.400,458.600 96.600,458.400 97.000,460.000 C 97.400,461.600 97.600,459.800 98.000,461.000 C 98.400,462.200 96.000,458.200 98.000,463.000 C 100.000,467.800 99.800,467.800 103.000,473.000 C 106.200,478.200 104.800,474.400 106.000,476.000 C 107.200,477.600 103.200,473.800 106.000,477.000 C 108.800,480.200 109.800,481.200 113.000,484.000 C 116.200,486.800 111.200,482.000 114.000,484.000 C 116.800,486.000 116.000,486.200 120.000,489.000 C 124.000,491.800 121.600,490.200 124.000,491.000 C 126.400,491.800 124.000,490.200 126.000,491.000 C 128.000,491.800 126.600,492.200 129.000,493.000 C 131.400,493.800 130.400,492.600 132.000,493.000 C 133.600,493.400 131.000,493.600 133.000,494.000 C 135.000,494.400 135.000,493.600 137.000,494.000 C 139.000,494.400 110.400,494.600 138.000,495.000 C 165.600,495.400 178.000,495.400 206.000,495.000 C 234.000,494.600 206.000,495.600 208.000,494.000 C 210.000,492.400 209.800,493.000 211.000,491.000 C 212.200,489.000 210.600,490.200 211.000,489.000 C 211.400,487.800 211.600,489.600 212.000,488.000 C 212.400,486.400 212.400,486.600 212.000,485.000 C 211.600,483.400 211.400,485.200 211.000,484.000 C 210.600,482.800 220.200,492.000 211.000,482.000 C 201.800,472.000 197.200,468.600 188.000,459.000 C 178.800,449.400 188.800,459.200 188.000,458.000 C 187.200,456.800 186.800,457.600 186.000,456.000 C 185.200,454.400 186.800,456.400 186.000,454.000 C 185.200,451.600 184.800,478.000 184.000,450.000 C 183.200,422.000 183.600,410.800 184.000,384.000 C 184.400,357.200 184.600,390.200 185.000,383.000 C 185.400,375.800 184.600,373.200 185.000,366.000 C 185.400,358.800 185.600,371.800 186.000,365.000 C 186.400,358.200 185.600,355.800 186.000,349.000 C 186.400,342.200 186.600,355.200 187.000,348.000 C 187.400,340.800 186.600,338.200 187.000,331.000 C 187.400,323.800 187.600,336.400 188.000,330.000 C 188.400,323.600 187.600,321.400 188.000,315.000 C 188.400,308.600 188.600,321.200 189.000,314.000 C 189.400,306.800 188.600,304.200 189.000,297.000 C 189.400,289.800 189.600,302.800 190.000,296.000 C 190.400,289.200 189.600,286.800 190.000,280.000 C 190.400,273.200 190.600,285.400 191.000,279.000 C 191.400,272.600 190.600,270.400 191.000,264.000 C 191.400,257.600 191.600,270.200 192.000,263.000 C 192.400,255.800 191.600,253.200 192.000,246.000 C 192.400,238.800 192.600,251.800 193.000,245.000 C 193.400,238.200 192.600,235.800 193.000,229.000 C 193.400,222.200 193.600,234.800 194.000,228.000 C 194.400,221.200 193.600,218.800 194.000,212.000 C 194.400,205.200 194.600,218.200 195.000,211.000 C 195.400,203.800 194.600,201.200 195.000,194.000 C 195.400,186.800 195.600,199.400 196.000,193.000 C 196.400,186.600 195.600,184.400 196.000,178.000 C 196.400,171.600 196.600,180.600 197.000,177.000 C 197.400,173.400 196.600,172.600 197.000,169.000 C 197.400,165.400 196.400,168.400 198.000,168.000 C 199.600,167.600 199.400,167.600 201.000,168.000 C 202.600,168.400 200.400,168.600 202.000,169.000 C 203.600,169.400 203.400,168.600 205.000,169.000 C 206.600,169.400 204.400,169.600 206.000,170.000 C 207.600,170.400 207.400,169.600 209.000,170.000 C 210.600,170.400 208.400,170.600 210.000,171.000 C 211.600,171.400 211.400,170.600 213.000,171.000 C 214.600,171.400 212.000,171.600 214.000,172.000 C 216.000,172.400 216.000,171.600 218.000,172.000 C 220.000,172.400 217.400,172.600 219.000,173.000 C 220.600,173.400 220.400,172.600 222.000,173.000 C 223.600,173.400 221.400,173.600 223.000,174.000 C 224.600,174.400 224.400,173.600 226.000,174.000 C 227.600,174.400 225.800,174.600 227.000,175.000 C 228.200,175.400 226.600,173.400 229.000,175.000 C 231.400,176.600 231.400,177.000 233.000,179.000 C 234.600,181.000 231.400,177.600 233.000,180.000 C 234.600,182.400 235.000,181.800 237.000,185.000 C 239.000,188.200 236.800,186.000 238.000,188.000 C 239.200,190.000 238.800,188.000 240.000,190.000 C 241.200,192.000 239.000,189.800 241.000,193.000 C 243.000,196.200 243.000,194.800 245.000,198.000 C 247.000,201.200 244.800,199.000 246.000,201.000 C 247.200,203.000 245.600,199.000 248.000,203.000 C 250.400,207.000 248.800,205.800 252.000,211.000 C 255.200,216.200 254.400,210.000 256.000,216.000 C 257.600,222.000 256.400,221.600 256.000,226.000 C 255.600,230.400 255.400,222.600 255.000,227.000 C 254.600,231.400 255.400,232.600 255.000,237.000 C 254.600,241.400 254.400,233.200 254.000,238.000 C 253.600,242.800 254.400,244.200 254.000,249.000 C 253.600,253.800 253.400,245.200 253.000,250.000 C 252.600,254.800 253.400,256.200 253.000,261.000 C 252.600,265.800 252.400,257.200 252.000,262.000 C 251.600,266.800 252.400,268.200 252.000,273.000 C 251.600,277.800 251.400,269.600 251.000,274.000 C 250.600,278.400 251.400,279.600 251.000,284.000 C 250.600,288.400 250.400,279.800 250.000,285.000 C 249.600,290.200 250.400,291.800 250.000,297.000 C 249.600,302.200 249.400,293.600 249.000,298.000 C 248.600,302.400 249.400,303.600 249.000,308.000 C 248.600,312.400 248.400,304.200 248.000,309.000 C 247.600,313.800 248.400,315.200 248.000,320.000 C 247.600,324.800 247.400,316.200 247.000,321.000 C 246.600,325.800 247.400,327.200 247.000,332.000 C 246.600,336.800 246.400,328.600 246.000,333.000 C 245.600,337.400 246.400,338.600 246.000,343.000 C 245.600,347.400 245.400,339.200 245.000,344.000 C 244.600,348.800 245.400,350.200 245.000,355.000 C 244.600,359.800 244.400,350.800 244.000,356.000 C 243.600,361.200 243.600,362.400 244.000,368.000 C 244.400,373.600 243.400,368.000 245.000,370.000 C 246.600,372.000 246.000,371.400 248.000,373.000 C 250.000,374.600 244.800,373.600 250.000,374.000 C 255.200,374.400 256.200,373.600 261.000,374.000 C 265.800,374.400 261.600,368.600 262.000,375.000 C 262.400,381.400 263.200,383.200 262.000,390.000 C 260.800,396.800 261.800,391.200 259.000,392.000 C 256.200,392.800 257.000,391.600 255.000,392.000 C 253.000,392.400 255.600,392.600 254.000,393.000 C 252.400,393.400 252.600,392.600 251.000,393.000 C 249.400,393.400 251.200,393.600 250.000,394.000 C 248.800,394.400 252.000,392.400 248.000,394.000 C 244.000,395.600 244.000,395.600 240.000,398.000 C 236.000,400.400 239.200,399.200 238.000,400.000 C 236.800,400.800 241.000,396.800 237.000,400.000 C 233.000,403.200 231.600,404.400 228.000,408.000 C 224.400,411.600 229.600,407.000 228.000,409.000 C 226.400,411.000 226.000,410.200 224.000,413.000 C 222.000,415.800 224.200,414.000 223.000,416.000 C 221.800,418.000 222.600,415.600 221.000,418.000 C 219.400,420.400 219.800,419.600 219.000,422.000 C 218.200,424.400 219.800,421.600 219.000,424.000 C 218.200,426.400 217.800,425.200 217.000,428.000 C 216.200,430.800 217.400,429.400 217.000,431.000 C 216.600,432.600 216.400,429.200 216.000,432.000 C 215.600,434.800 216.400,435.200 216.000,438.000 C 215.600,440.800 215.400,435.400 215.000,439.000 C 214.600,442.600 214.600,443.400 215.000,447.000 C 215.400,450.600 215.600,445.600 216.000,448.000 C 216.400,450.400 215.600,450.600 216.000,453.000 C 216.400,455.400 216.600,452.400 217.000,454.000 C 217.400,455.600 216.600,455.400 217.000,457.000 C 217.400,458.600 217.200,455.600 218.000,458.000 C 218.800,460.400 217.400,458.600 219.000,463.000 C 220.600,467.400 218.800,464.200 222.000,469.000 C 225.200,473.800 225.000,472.200 227.000,475.000 C 229.000,477.800 224.600,473.200 227.000,476.000 C 229.400,478.800 230.200,479.600 233.000,482.000 C 235.800,484.400 231.200,480.000 234.000,482.000 C 236.800,484.000 234.400,483.400 240.000,487.000 C 245.600,490.600 244.000,489.400 248.000,491.000 C 252.000,492.600 247.600,490.200 250.000,491.000 C 252.400,491.800 250.800,492.200 254.000,493.000 C 257.200,493.800 256.000,492.600 258.000,493.000 C 260.000,493.400 178.200,493.600 259.000,494.000 C 339.800,494.400 379.200,494.400 460.000,494.000 C 540.800,493.600 459.000,493.400 461.000,493.000 C 463.000,492.600 463.000,493.400 465.000,493.000 C 467.000,492.600 463.600,492.800 466.000,492.000 C 468.400,491.200 465.800,493.000 471.000,491.000 C 476.200,489.000 473.400,490.600 479.000,487.000 C 484.600,483.400 482.200,484.000 485.000,482.000 C 487.800,480.000 482.000,486.000 486.000,482.000 C 490.000,478.000 491.000,477.200 495.000,472.000 C 499.000,466.800 494.400,471.800 496.000,469.000 C 497.600,466.200 497.800,467.400 499.000,465.000 C 500.200,462.600 497.800,466.200 499.000,463.000 C 500.200,459.800 500.800,460.600 502.000,457.000 C 503.200,453.400 501.600,455.600 502.000,454.000 C 502.400,452.400 502.600,455.400 503.000,453.000 C 503.400,450.600 502.600,450.400 503.000,448.000 C 503.400,445.600 503.600,451.000 504.000,447.000 C 504.400,443.000 504.400,442.000 504.000,438.000 C 503.600,434.000 503.400,439.400 503.000,437.000 C 502.600,434.600 503.400,434.400 503.000,432.000 C 502.600,429.600 502.400,432.600 502.000,431.000 C 501.600,429.400 502.400,429.600 502.000,428.000 C 501.600,426.400 501.400,428.200 501.000,427.000 C 500.600,425.800 503.400,430.600 501.000,425.000 C 498.600,419.400 499.000,419.400 495.000,413.000 C 491.000,406.600 492.600,411.000 491.000,409.000 C 489.400,407.000 494.600,411.600 491.000,408.000 C 487.400,404.400 486.000,403.200 482.000,400.000 C 478.000,396.800 482.200,400.800 481.000,400.000 C 479.800,399.200 483.000,400.400 479.000,398.000 C 475.000,395.600 475.000,395.600 471.000,394.000 C 467.000,392.400 470.200,394.400 469.000,394.000 C 467.800,393.600 469.600,393.400 468.000,393.000 C 466.400,392.600 466.600,393.400 465.000,393.000 C 463.400,392.600 466.000,392.400 464.000,392.000 C 462.000,391.600 462.000,392.400 460.000,392.000 C 458.000,391.600 461.400,391.400 459.000,391.000 C 456.600,390.600 456.400,391.400 454.000,391.000 C 451.600,390.600 453.400,396.000 453.000,390.000 C 452.600,384.000 452.200,382.400 453.000,376.000 C 453.800,369.600 439.000,374.800 455.000,374.000 C 471.000,373.200 476.200,374.800 493.000,374.000 C 509.800,373.200 494.200,374.000 497.000,372.000 C 499.800,370.000 498.400,371.000 500.000,369.000 C 501.600,367.000 500.600,368.600 501.000,367.000 C 501.400,365.400 500.600,366.200 501.000,365.000 C 501.400,363.800 501.600,366.800 502.000,364.000 C 502.400,361.200 502.400,360.800 502.000,358.000 C 501.600,355.200 501.400,359.400 501.000,357.000 C 500.600,354.600 501.400,354.400 501.000,352.000 C 500.600,349.600 500.400,353.000 500.000,351.000 C 499.600,349.000 500.400,349.000 500.000,347.000 C 499.600,345.000 499.400,348.000 499.000,346.000 C 498.600,344.000 499.400,344.000 499.000,342.000 C 498.600,340.000 498.400,343.000 498.000,341.000 C 497.600,339.000 498.400,339.000 498.000,337.000 C 497.600,335.000 497.400,338.000 497.000,336.000 C 496.600,334.000 497.400,334.000 497.000,332.000 C 496.600,330.000 496.400,333.400 496.000,331.000 C 495.600,328.600 496.400,328.400 496.000,326.000 C 495.600,323.600 495.400,326.600 495.000,325.000 C 494.600,323.400 495.400,323.600 495.000,322.000 C 494.600,320.400 494.400,322.200 494.000,321.000 C 493.600,319.800 494.400,320.600 494.000,319.000 C 493.600,317.400 495.000,319.400 493.000,317.000 C 491.000,314.600 491.800,315.000 489.000,313.000 C 486.200,311.000 488.000,313.200 486.000,312.000 C 484.000,310.800 484.800,317.200 484.000,310.000 C 483.200,302.800 485.200,302.000 484.000,294.000 C 482.800,286.000 482.200,292.000 481.000,290.000 C 479.800,288.000 482.600,290.600 481.000,289.000 C 479.400,287.400 479.400,287.200 477.000,286.000 C 474.600,284.800 476.200,286.400 475.000,286.000 C 473.800,285.600 496.800,285.400 474.000,285.000 C 451.200,284.600 442.000,284.200 418.000,285.000 C 394.000,285.800 417.200,284.600 414.000,287.000 C 410.800,289.400 412.000,288.600 410.000,291.000 C 408.000,293.400 409.400,291.400 409.000,293.000 C 408.600,294.600 409.400,293.800 409.000,295.000 C 408.600,296.200 408.400,290.400 408.000,296.000 C 407.600,301.600 408.400,303.400 408.000,309.000 C 407.600,314.600 411.800,309.600 407.000,310.000 C 402.200,310.400 401.200,310.800 396.000,310.000 C 390.800,309.200 395.200,312.400 394.000,308.000 C 392.800,303.600 393.800,303.000 393.000,299.000 C 392.200,295.000 392.400,299.600 392.000,298.000 C 391.600,296.400 392.400,296.600 392.000,295.000 C 391.600,293.400 391.400,296.000 391.000,294.000 C 390.600,292.000 391.400,292.000 391.000,290.000 C 390.600,288.000 390.400,290.600 390.000,289.000 C 389.600,287.400 390.400,287.600 390.000,286.000 C 389.600,284.400 389.800,289.000 389.000,285.000 C 388.200,281.000 388.800,280.000 388.000,276.000 C 387.200,272.000 387.400,276.600 387.000,275.000 C 386.600,273.400 387.400,273.600 387.000,272.000 C 386.600,270.400 386.400,273.000 386.000,271.000 C 385.600,269.000 386.400,269.000 386.000,267.000 C 385.600,265.000 385.400,267.600 385.000,266.000 C 384.600,264.400 385.400,264.600 385.000,263.000 C 384.600,261.400 384.400,264.000 384.000,262.000 C 383.600,260.000 384.400,260.000 384.000,258.000 C 383.600,256.000 383.400,258.600 383.000,257.000 C 382.600,255.400 383.400,255.600 383.000,254.000 C 382.600,252.400 382.800,257.000 382.000,253.000 C 381.200,249.000 381.800,248.000 381.000,244.000 C 380.200,240.000 380.400,244.600 380.000,243.000 C 379.600,241.400 380.400,241.600 380.000,240.000 C 379.600,238.400 379.400,241.000 379.000,239.000 C 378.600,237.000 379.400,237.000 379.000,235.000 C 378.600,233.000 378.400,235.600 378.000,234.000 C 377.600,232.400 378.400,232.600 378.000,231.000 C 377.600,229.400 377.400,232.000 377.000,230.000 C 376.600,228.000 377.400,228.000 377.000,226.000 C 376.600,224.000 376.400,226.600 376.000,225.000 C 375.600,223.400 376.400,223.600 376.000,222.000 C 375.600,220.400 375.800,225.000 375.000,221.000 C 374.200,217.000 374.800,216.000 374.000,212.000 C 373.200,208.000 373.400,212.200 373.000,211.000 C 372.600,209.800 373.800,211.400 373.000,209.000 C 372.200,206.600 373.400,208.200 371.000,205.000 C 368.600,201.800 370.200,203.400 367.000,201.000 C 363.800,198.600 386.200,199.800 363.000,199.000 C 339.800,198.200 331.800,200.200 309.000,199.000 C 286.200,197.800 307.600,198.400 306.000,196.000 C 304.400,193.600 306.200,195.000 305.000,193.000 C 303.800,191.000 304.200,193.000 303.000,191.000 C 301.800,189.000 303.200,190.000 302.000,188.000 C 300.800,186.000 302.400,190.000 300.000,186.000 C 297.600,182.000 299.200,183.200 296.000,178.000 C 292.800,172.800 294.000,176.200 292.000,173.000 C 290.000,169.800 292.200,172.000 291.000,170.000 C 289.800,168.000 291.400,172.000 289.000,168.000 C 286.600,164.000 288.200,165.200 285.000,160.000 C 281.800,154.800 284.200,160.200 281.000,155.000 C 277.800,149.800 280.200,152.200 277.000,147.000 C 273.800,141.800 275.000,145.200 273.000,142.000 C 271.000,138.800 276.000,143.800 272.000,139.000 C 268.000,134.200 269.800,135.200 263.000,130.000 C 256.200,124.800 259.400,127.600 255.000,126.000 C 250.600,124.400 253.600,126.400 252.000,126.000 C 250.400,125.600 254.200,125.800 251.000,125.000 C 247.800,124.200 248.400,125.200 244.000,124.000 C 239.600,122.800 242.800,122.800 240.000,122.000 C 237.200,121.200 238.600,122.400 237.000,122.000 C 235.400,121.600 237.600,121.400 236.000,121.000 C 234.400,120.600 234.600,121.400 233.000,121.000 C 231.400,120.600 233.600,120.400 232.000,120.000 C 230.400,119.600 230.600,120.400 229.000,120.000 C 227.400,119.600 229.600,119.400 228.000,119.000 C 226.400,118.600 226.600,119.400 225.000,119.000 C 223.400,118.600 225.600,118.400 224.000,118.000 C 222.400,117.600 222.600,118.400 221.000,118.000 C 219.400,117.600 223.200,117.800 220.000,117.000 C 216.800,116.200 217.400,117.200 213.000,116.000 C 208.600,114.800 211.800,114.800 209.000,114.000 C 206.200,113.200 207.600,114.400 206.000,114.000 C 204.400,113.600 206.600,113.400 205.000,113.000 C 203.400,112.600 203.600,113.400 202.000,113.000 C 200.400,112.600 202.600,112.400 201.000,112.000 C 199.400,111.600 199.600,112.400 198.000,112.000 C 196.400,111.600 198.600,111.400 197.000,111.000 C 195.400,110.600 195.600,111.400 194.000,111.000 C 192.400,110.600 196.200,110.800 193.000,110.000 C 189.800,109.200 189.200,109.800 186.000,109.000 C 182.800,108.200 186.200,108.400 185.000,108.000 C 183.800,107.600 184.200,108.400 183.000,108.000 C 181.800,107.600 183.200,107.400 182.000,107.000 C 180.800,106.600 182.000,107.800 180.000,107.000 C 178.000,106.200 179.400,105.800 177.000,105.000 C 174.600,104.200 175.600,105.400 174.000,105.000 C 172.400,104.600 177.800,104.400 173.000,104.000 C 168.200,103.600 166.800,103.600 162.000,104.000 C 157.200,104.400 162.600,104.600 161.000,105.000 C 159.400,105.400 159.600,104.600 158.000,105.000 C 156.400,105.400 158.200,105.600 157.000,106.000 C 155.800,106.400 157.400,105.200 155.000,106.000 C 152.600,106.800 153.400,106.400 151.000,108.000 C 148.600,109.600 150.200,109.200 149.000,110.000 C 147.800,110.800 150.800,107.600 148.000,110.000 Z"/>
  </g>
</svg>
