<?xml version="1.0" encoding="utf-8"?>
<svg xmlns="http://www.w3.org/2000/svg"
     width="600" height="600"
     viewBox="0 0 600 600">
  <rect width="100%" height="100%" fill="white"/>
  <g fill="none" stroke="black" stroke-width="2.0">
    <path d="M 446.000,428.000 C 447.950,427.550 453.050,427.700 455.000,428.000 C 456.950,428.300 457.650,428.950 459.000,430.000 C 460.350,431.050 463.100,433.950 464.000,435.000 C 464.900,436.050 464.850,436.400 465.000,437.000 C 465.150,437.600 464.850,438.550 465.000,439.000 C 465.150,439.450 465.850,439.100 466.000,440.000 C 466.150,440.900 466.150,444.100 466.000,445.000 C 465.850,445.900 465.150,445.550 465.000,446.000 C 464.850,446.450 465.150,447.400 465.000,448.000 C 464.850,448.600 465.050,448.800 464.000,450.000 C 462.950,451.200 459.200,454.950 458.000,456.000 C 456.800,457.050 456.900,456.850 456.000,457.000 C 455.100,457.150 452.750,456.850 452.000,457.000 C 451.250,457.150 451.450,458.000 451.000,458.000 C 450.550,458.000 449.750,457.150 449.000,457.000 C 448.250,456.850 447.050,457.300 446.000,457.000 C 444.950,456.700 443.050,455.750 442.000,455.000 C 440.950,454.250 439.450,452.600 439.000,452.000 C 438.550,451.400 439.450,451.750 439.000,451.000 C 438.550,450.250 436.450,448.800 436.000,447.000 C 435.550,445.200 435.850,440.350 436.000,439.000 C 436.150,437.650 436.850,438.450 437.000,438.000 C 437.150,437.550 436.400,437.050 437.000,436.000 C 437.600,434.950 440.250,431.750 441.000,431.000 C 441.750,430.250 441.250,431.450 442.000,431.000 C 442.750,430.550 444.050,428.450 446.000,428.000 Z"/>
    <path d="M 283.000,429.000 C 282.550,427.650 262.100,428.150 284.000,428.000 C 305.900,427.850 407.100,427.850 429.000,428.000 C 450.900,428.150 430.300,428.100 430.000,429.000 C 429.700,429.900 427.450,432.800 427.000,434.000 C 426.550,435.200 427.150,436.400 427.000,437.000 C 426.850,437.600 426.150,436.350 426.000,438.000 C 425.850,439.650 425.850,446.350 426.000,448.000 C 426.150,449.650 426.850,448.550 427.000,449.000 C 427.150,449.450 426.550,449.800 427.000,451.000 C 427.450,452.200 429.700,455.950 430.000,457.000 C 430.300,458.050 450.900,457.850 429.000,458.000 C 407.100,458.150 305.900,458.300 284.000,458.000 C 262.100,457.700 282.850,456.600 283.000,456.000 C 283.150,455.400 284.700,454.600 285.000,454.000 C 285.300,453.400 284.700,452.900 285.000,452.000 C 285.300,451.100 286.700,450.250 287.000,448.000 C 287.300,445.750 287.600,439.850 287.000,437.000 C 286.400,434.150 283.450,430.350 283.000,429.000 Z"/>
    <path d="M 258.000,428.000 C 259.950,427.700 265.050,427.700 267.000,428.000 C 268.950,428.300 269.950,429.250 271.000,430.000 C 272.050,430.750 273.550,432.400 274.000,433.000 C 274.450,433.600 273.550,433.250 274.000,434.000 C 274.450,434.750 276.550,436.050 277.000,438.000 C 277.450,439.950 277.300,445.050 277.000,447.000 C 276.700,448.950 275.900,449.800 275.000,451.000 C 274.100,452.200 272.200,454.100 271.000,455.000 C 269.800,455.900 268.200,456.700 267.000,457.000 C 265.800,457.300 263.750,456.850 263.000,457.000 C 262.250,457.150 262.300,458.000 262.000,458.000 C 261.700,458.000 261.600,457.150 261.000,457.000 C 260.400,456.850 259.050,457.300 258.000,457.000 C 256.950,456.700 255.350,456.050 254.000,455.000 C 252.650,453.950 249.900,451.050 249.000,450.000 C 248.100,448.950 248.150,448.750 248.000,448.000 C 247.850,447.250 248.150,445.600 248.000,445.000 C 247.850,444.400 247.000,445.200 247.000,444.000 C 247.000,442.800 246.950,439.100 248.000,437.000 C 249.050,434.900 252.500,431.350 254.000,430.000 C 255.500,428.650 256.050,428.300 258.000,428.000 Z"/>
    <path d="M 238.000,436.000 C 237.850,438.100 237.850,446.900 238.000,449.000 C 238.150,451.100 238.850,449.550 239.000,450.000 C 239.150,450.450 238.700,451.100 239.000,452.000 C 239.300,452.900 240.250,454.950 241.000,456.000 C 241.750,457.050 243.550,458.400 244.000,459.000 C 244.450,459.600 243.700,459.700 244.000,460.000 C 244.300,460.300 245.250,460.400 246.000,461.000 C 246.750,461.600 247.950,463.250 249.000,464.000 C 250.050,464.750 252.100,465.700 253.000,466.000 C 253.900,466.300 254.550,465.850 255.000,466.000 C 255.450,466.150 225.700,466.850 256.000,467.000 C 286.300,467.150 426.700,467.150 457.000,467.000 C 487.300,466.850 457.550,466.150 458.000,466.000 C 458.450,465.850 459.100,466.300 460.000,466.000 C 460.900,465.700 462.500,465.050 464.000,464.000 C 465.500,462.950 469.100,459.900 470.000,459.000 C 470.900,458.100 469.700,458.450 470.000,458.000 C 470.300,457.550 471.250,457.200 472.000,456.000 C 472.750,454.800 474.550,451.500 475.000,450.000 C 475.450,448.500 474.850,446.750 475.000,446.000 C 475.150,445.250 475.850,445.900 476.000,445.000 C 476.150,444.100 476.150,440.900 476.000,440.000 C 475.850,439.100 475.150,439.750 475.000,439.000 C 474.850,438.250 475.450,436.500 475.000,435.000 C 474.550,433.500 472.900,430.350 472.000,429.000 C 471.100,427.650 469.450,426.600 469.000,426.000 C 468.550,425.400 469.300,425.300 469.000,425.000 C 468.700,424.700 467.750,424.600 467.000,424.000 C 466.250,423.400 465.050,421.750 464.000,421.000 C 462.950,420.250 460.900,419.300 460.000,419.000 C 459.100,418.700 458.450,419.150 458.000,419.000 C 457.550,418.850 487.150,418.150 457.000,418.000 C 426.850,417.850 287.150,417.850 257.000,418.000 C 226.850,418.150 256.600,418.850 256.000,419.000 C 255.400,419.150 254.050,418.550 253.000,419.000 C 251.950,419.450 249.750,421.550 249.000,422.000 C 248.250,422.450 249.200,420.950 248.000,422.000 C 246.800,423.050 242.350,427.350 241.000,429.000 C 239.650,430.650 239.300,432.100 239.000,433.000 C 238.700,433.900 239.150,434.550 239.000,435.000 C 238.850,435.450 238.150,433.900 238.000,436.000 Z"/>
    <path d="M 112.000,423.000 C 113.500,421.350 120.350,414.500 122.000,413.000 C 123.650,411.500 122.550,413.300 123.000,413.000 C 123.450,412.700 124.100,411.600 125.000,411.000 C 125.900,410.400 128.100,409.300 129.000,409.000 C 129.900,408.700 130.100,409.300 131.000,409.000 C 131.900,408.700 133.950,407.300 135.000,407.000 C 136.050,406.700 137.400,407.150 138.000,407.000 C 138.600,406.850 133.750,406.150 139.000,406.000 C 144.250,405.850 167.750,405.850 173.000,406.000 C 178.250,406.150 173.850,400.400 174.000,407.000 C 174.150,413.600 173.850,443.400 174.000,450.000 C 174.150,456.600 174.850,450.250 175.000,451.000 C 175.150,451.750 174.850,454.250 175.000,455.000 C 175.150,455.750 175.850,455.550 176.000,456.000 C 176.150,456.450 175.550,456.800 176.000,458.000 C 176.450,459.200 175.550,460.100 179.000,464.000 C 182.450,467.900 196.150,480.850 199.000,484.000 C 201.850,487.150 207.150,484.850 198.000,485.000 C 188.850,485.150 147.150,485.150 138.000,485.000 C 128.850,484.850 137.600,484.150 137.000,484.000 C 136.400,483.850 134.600,484.150 134.000,484.000 C 133.400,483.850 133.450,483.150 133.000,483.000 C 132.550,482.850 132.500,483.600 131.000,483.000 C 129.500,482.400 125.400,480.650 123.000,479.000 C 120.600,477.350 116.200,473.200 115.000,472.000 C 113.800,470.800 115.750,472.050 115.000,471.000 C 114.250,469.950 111.050,466.500 110.000,465.000 C 108.950,463.500 108.300,461.900 108.000,461.000 C 107.700,460.100 108.300,459.900 108.000,459.000 C 107.700,458.100 106.300,456.200 106.000,455.000 C 105.700,453.800 106.150,451.750 106.000,451.000 C 105.850,450.250 105.150,451.350 105.000,450.000 C 104.850,448.650 104.850,443.350 105.000,442.000 C 105.150,440.650 105.850,441.900 106.000,441.000 C 106.150,440.100 105.850,436.900 106.000,436.000 C 106.150,435.100 106.700,435.900 107.000,435.000 C 107.300,434.100 107.550,431.350 108.000,430.000 C 108.450,428.650 109.400,426.900 110.000,426.000 C 110.600,425.100 111.700,424.450 112.000,424.000 C 112.300,423.550 110.500,424.650 112.000,423.000 Z"/>
    <path d="M 225.000,438.000 C 225.150,436.500 225.850,437.750 226.000,437.000 C 226.150,436.250 225.850,433.750 226.000,433.000 C 226.150,432.250 226.850,432.600 227.000,432.000 C 227.150,431.400 226.400,430.650 227.000,429.000 C 227.600,427.350 230.100,422.500 231.000,421.000 C 231.900,419.500 232.700,419.450 233.000,419.000 C 233.300,418.550 231.650,419.500 233.000,418.000 C 234.350,416.500 240.500,410.350 242.000,409.000 C 243.500,407.650 242.100,409.600 243.000,409.000 C 243.900,408.400 246.950,405.750 248.000,405.000 C 249.050,404.250 249.400,404.150 250.000,404.000 C 250.600,403.850 251.550,404.150 252.000,404.000 C 252.450,403.850 252.550,403.150 253.000,403.000 C 253.450,402.850 254.550,403.150 255.000,403.000 C 255.450,402.850 255.400,402.150 256.000,402.000 C 256.600,401.850 258.400,402.150 259.000,402.000 C 259.600,401.850 230.000,401.150 260.000,401.000 C 290.000,400.850 429.000,400.850 459.000,401.000 C 489.000,401.150 459.400,401.850 460.000,402.000 C 460.600,402.150 462.400,401.850 463.000,402.000 C 463.600,402.150 463.550,402.850 464.000,403.000 C 464.450,403.150 465.550,402.850 466.000,403.000 C 466.450,403.150 466.550,403.850 467.000,404.000 C 467.450,404.150 468.400,403.850 469.000,404.000 C 469.600,404.150 470.400,404.550 471.000,405.000 C 471.600,405.450 472.100,406.400 473.000,407.000 C 473.900,407.600 475.050,407.350 477.000,409.000 C 478.950,410.650 484.650,416.500 486.000,418.000 C 487.350,419.500 485.700,418.550 486.000,419.000 C 486.300,419.450 487.100,419.500 488.000,421.000 C 488.900,422.500 491.400,427.350 492.000,429.000 C 492.600,430.650 491.850,431.400 492.000,432.000 C 492.150,432.600 492.850,432.250 493.000,433.000 C 493.150,433.750 492.850,436.250 493.000,437.000 C 493.150,437.750 493.850,436.500 494.000,438.000 C 494.150,439.500 494.150,445.500 494.000,447.000 C 493.850,448.500 493.150,447.250 493.000,448.000 C 492.850,448.750 493.150,451.250 493.000,452.000 C 492.850,452.750 492.150,452.400 492.000,453.000 C 491.850,453.600 492.600,454.350 492.000,456.000 C 491.400,457.650 488.900,462.500 488.000,464.000 C 487.100,465.500 486.300,465.550 486.000,466.000 C 485.700,466.450 487.500,465.350 486.000,467.000 C 484.500,468.650 477.650,475.500 476.000,477.000 C 474.350,478.500 475.450,476.700 475.000,477.000 C 474.550,477.300 473.900,478.400 473.000,479.000 C 472.100,479.600 469.900,480.700 469.000,481.000 C 468.100,481.300 467.450,480.850 467.000,481.000 C 466.550,481.150 466.900,481.700 466.000,482.000 C 465.100,482.300 461.900,482.700 461.000,483.000 C 460.100,483.300 490.150,483.850 460.000,484.000 C 429.850,484.150 290.150,484.150 260.000,484.000 C 229.850,483.850 259.750,483.150 259.000,483.000 C 258.250,482.850 256.050,483.300 255.000,483.000 C 253.950,482.700 252.750,481.300 252.000,481.000 C 251.250,480.700 250.900,481.300 250.000,481.000 C 249.100,480.700 246.900,479.600 246.000,479.000 C 245.100,478.400 244.450,477.300 244.000,477.000 C 243.550,476.700 244.650,478.500 243.000,477.000 C 241.350,475.500 234.500,468.650 233.000,467.000 C 231.500,465.350 233.300,466.450 233.000,466.000 C 232.700,465.550 231.900,465.500 231.000,464.000 C 230.100,462.500 227.600,457.650 227.000,456.000 C 226.400,454.350 227.150,453.600 227.000,453.000 C 226.850,452.400 226.150,452.750 226.000,452.000 C 225.850,451.250 226.150,448.750 226.000,448.000 C 225.850,447.250 225.150,448.500 225.000,447.000 C 224.850,445.500 224.850,439.500 225.000,438.000 Z"/>
    <path d="M 164.000,380.000 C 164.750,379.550 165.400,380.150 166.000,380.000 C 166.600,379.850 166.950,378.700 168.000,379.000 C 169.050,379.300 172.100,381.250 173.000,382.000 C 173.900,382.750 173.850,382.050 174.000,384.000 C 174.150,385.950 174.150,393.200 174.000,395.000 C 173.850,396.800 174.950,395.850 173.000,396.000 C 171.050,396.150 162.950,396.150 161.000,396.000 C 159.050,395.850 160.150,396.650 160.000,395.000 C 159.850,393.350 159.850,386.800 160.000,385.000 C 160.150,383.200 160.400,383.750 161.000,383.000 C 161.600,382.250 163.250,380.450 164.000,380.000 Z"/>
    <path d="M 272.000,375.000 C 272.150,372.600 247.500,374.150 273.000,374.000 C 298.500,373.850 416.350,373.700 442.000,374.000 C 467.650,374.300 443.700,373.600 444.000,376.000 C 444.300,378.400 444.150,387.750 444.000,390.000 C 443.850,392.250 468.650,390.850 443.000,391.000 C 417.350,391.150 298.650,391.150 273.000,391.000 C 247.350,390.850 272.150,392.400 272.000,390.000 C 271.850,387.600 271.850,377.400 272.000,375.000 Z"/>
    <path d="M 257.000,322.000 C 257.300,320.350 225.400,320.300 259.000,320.000 C 292.600,319.700 447.250,319.700 481.000,320.000 C 514.750,320.300 483.400,321.400 484.000,322.000 C 484.600,322.600 484.850,323.400 485.000,324.000 C 485.150,324.600 484.850,325.550 485.000,326.000 C 485.150,326.450 485.850,326.250 486.000,327.000 C 486.150,327.750 485.850,330.250 486.000,331.000 C 486.150,331.750 486.850,331.100 487.000,332.000 C 487.150,332.900 486.850,336.100 487.000,337.000 C 487.150,337.900 487.850,337.250 488.000,338.000 C 488.150,338.750 487.850,341.250 488.000,342.000 C 488.150,342.750 488.850,342.250 489.000,343.000 C 489.150,343.750 488.850,346.250 489.000,347.000 C 489.150,347.750 489.850,347.250 490.000,348.000 C 490.150,348.750 489.850,351.250 490.000,352.000 C 490.150,352.750 490.700,351.500 491.000,353.000 C 491.300,354.500 492.150,360.350 492.000,362.000 C 491.850,363.650 525.550,363.700 490.000,364.000 C 454.450,364.300 290.400,364.150 255.000,364.000 C 219.600,363.850 254.150,364.200 254.000,363.000 C 253.850,361.800 253.850,357.200 254.000,356.000 C 254.150,354.800 254.850,356.800 255.000,355.000 C 255.150,353.200 254.850,345.800 255.000,344.000 C 255.150,342.200 255.850,344.800 256.000,343.000 C 256.150,341.200 255.850,333.800 256.000,332.000 C 256.150,330.200 256.850,332.500 257.000,331.000 C 257.150,329.500 256.700,323.650 257.000,322.000 Z"/>
    <path d="M 418.000,297.000 C 418.300,294.900 411.900,295.300 420.000,295.000 C 428.100,294.700 463.900,294.700 472.000,295.000 C 480.100,295.300 473.700,294.900 474.000,297.000 C 474.300,299.100 474.150,307.050 474.000,309.000 C 473.850,310.950 481.250,309.850 473.000,310.000 C 464.750,310.150 427.250,310.150 419.000,310.000 C 410.750,309.850 418.150,310.950 418.000,309.000 C 417.850,307.050 417.700,299.100 418.000,297.000 Z"/>
    <path d="M 319.000,293.000 C 319.150,290.450 310.850,292.150 320.000,292.000 C 329.150,291.850 370.700,291.550 380.000,292.000 C 389.300,292.450 381.550,293.200 382.000,295.000 C 382.450,296.800 382.700,302.500 383.000,304.000 C 383.300,305.500 383.850,304.400 384.000,305.000 C 384.150,305.600 383.850,307.400 384.000,308.000 C 384.150,308.600 385.000,308.700 385.000,309.000 C 385.000,309.300 393.750,309.850 384.000,310.000 C 374.250,310.150 329.750,310.150 320.000,310.000 C 310.250,309.850 319.150,311.550 319.000,309.000 C 318.850,306.450 318.850,295.550 319.000,293.000 Z"/>
    <path d="M 259.000,296.000 C 259.300,293.750 253.500,292.600 261.000,292.000 C 268.500,291.400 301.650,291.850 309.000,292.000 C 316.350,292.150 309.850,290.450 310.000,293.000 C 310.150,295.550 310.150,306.450 310.000,309.000 C 309.850,311.550 316.650,309.850 309.000,310.000 C 301.350,310.150 266.650,310.150 259.000,310.000 C 251.350,309.850 258.000,309.450 258.000,309.000 C 258.000,308.550 258.850,308.950 259.000,307.000 C 259.150,305.050 258.700,298.250 259.000,296.000 Z"/>
    <path d="M 153.000,249.000 C 157.350,248.850 176.650,248.850 181.000,249.000 C 185.350,249.150 181.850,247.900 182.000,250.000 C 182.150,252.100 182.150,260.900 182.000,263.000 C 181.850,265.100 181.150,261.300 181.000,264.000 C 180.850,266.700 181.150,278.300 181.000,281.000 C 180.850,283.700 180.150,279.600 180.000,282.000 C 179.850,284.400 180.150,294.600 180.000,297.000 C 179.850,299.400 179.150,295.450 179.000,298.000 C 178.850,300.550 179.150,311.450 179.000,314.000 C 178.850,316.550 178.150,312.300 178.000,315.000 C 177.850,317.700 178.150,329.300 178.000,332.000 C 177.850,334.700 177.150,330.450 177.000,333.000 C 176.850,335.550 177.150,346.450 177.000,349.000 C 176.850,351.550 176.150,347.450 176.000,350.000 C 175.850,352.550 176.150,363.450 176.000,366.000 C 175.850,368.550 175.150,366.400 175.000,367.000 C 174.850,367.600 175.150,369.400 175.000,370.000 C 174.850,370.600 174.300,371.000 174.000,371.000 C 173.700,371.000 174.800,370.150 173.000,370.000 C 171.200,369.850 163.800,369.850 162.000,370.000 C 160.200,370.150 161.450,371.000 161.000,371.000 C 160.550,371.000 159.300,372.250 159.000,370.000 C 158.700,367.750 159.150,358.250 159.000,356.000 C 158.850,353.750 158.150,357.550 158.000,355.000 C 157.850,352.450 158.150,341.550 158.000,339.000 C 157.850,336.450 157.150,340.850 157.000,338.000 C 156.850,335.150 157.150,322.850 157.000,320.000 C 156.850,317.150 156.150,321.400 156.000,319.000 C 155.850,316.600 156.150,306.400 156.000,304.000 C 155.850,301.600 155.150,305.550 155.000,303.000 C 154.850,300.450 155.150,289.550 155.000,287.000 C 154.850,284.450 154.150,288.550 154.000,286.000 C 153.850,283.450 154.150,272.550 154.000,270.000 C 153.850,267.450 153.150,271.550 153.000,269.000 C 152.850,266.450 153.150,255.550 153.000,253.000 C 152.850,250.450 152.150,252.450 152.000,252.000 C 151.850,251.550 151.850,250.450 152.000,250.000 C 152.150,249.550 148.650,249.150 153.000,249.000 Z"/>
    <path d="M 320.000,209.000 C 326.300,208.850 354.550,208.700 361.000,209.000 C 367.450,209.300 362.550,210.400 363.000,211.000 C 363.450,211.600 363.850,212.100 364.000,213.000 C 364.150,213.900 363.850,216.250 364.000,217.000 C 364.150,217.750 364.850,217.400 365.000,218.000 C 365.150,218.600 364.850,220.400 365.000,221.000 C 365.150,221.600 365.700,220.500 366.000,222.000 C 366.300,223.500 366.700,229.500 367.000,231.000 C 367.300,232.500 367.850,231.400 368.000,232.000 C 368.150,232.600 367.850,234.400 368.000,235.000 C 368.150,235.600 368.850,235.250 369.000,236.000 C 369.150,236.750 368.850,239.250 369.000,240.000 C 369.150,240.750 369.850,240.400 370.000,241.000 C 370.150,241.600 369.850,243.400 370.000,244.000 C 370.150,244.600 370.850,244.250 371.000,245.000 C 371.150,245.750 370.850,248.250 371.000,249.000 C 371.150,249.750 371.850,249.400 372.000,250.000 C 372.150,250.600 371.850,252.400 372.000,253.000 C 372.150,253.600 372.700,252.500 373.000,254.000 C 373.300,255.500 373.700,261.500 374.000,263.000 C 374.300,264.500 374.850,263.400 375.000,264.000 C 375.150,264.600 374.850,266.400 375.000,267.000 C 375.150,267.600 375.850,267.250 376.000,268.000 C 376.150,268.750 375.850,271.250 376.000,272.000 C 376.150,272.750 376.850,272.400 377.000,273.000 C 377.150,273.600 376.850,275.400 377.000,276.000 C 377.150,276.600 377.850,276.250 378.000,277.000 C 378.150,277.750 378.150,280.250 378.000,281.000 C 377.850,281.750 385.550,281.850 377.000,282.000 C 368.450,282.150 329.700,282.300 321.000,282.000 C 312.300,281.700 319.300,290.800 319.000,280.000 C 318.700,269.200 318.850,220.650 319.000,210.000 C 319.150,199.350 313.700,209.150 320.000,209.000 Z"/>
    <path d="M 269.000,209.000 C 275.300,208.700 302.850,208.850 309.000,209.000 C 315.150,209.150 309.850,199.350 310.000,210.000 C 310.150,220.650 310.300,269.200 310.000,280.000 C 309.700,290.800 315.200,281.700 308.000,282.000 C 300.800,282.300 269.050,282.150 262.000,282.000 C 254.950,281.850 261.150,282.500 261.000,281.000 C 260.850,279.500 260.850,273.500 261.000,272.000 C 261.150,270.500 261.850,272.650 262.000,271.000 C 262.150,269.350 261.850,262.650 262.000,261.000 C 262.150,259.350 262.850,261.650 263.000,260.000 C 263.150,258.350 262.850,251.650 263.000,250.000 C 263.150,248.350 263.850,250.800 264.000,249.000 C 264.150,247.200 263.850,239.800 264.000,238.000 C 264.150,236.200 264.850,238.800 265.000,237.000 C 265.150,235.200 264.850,227.800 265.000,226.000 C 265.150,224.200 265.850,226.800 266.000,225.000 C 266.150,223.200 265.850,215.800 266.000,214.000 C 266.150,212.200 266.850,213.450 267.000,213.000 C 267.150,212.550 266.700,211.600 267.000,211.000 C 267.300,210.400 262.700,209.300 269.000,209.000 Z"/>
    <path d="M 167.000,128.000 C 166.250,128.000 165.750,128.250 165.000,129.000 C 164.250,129.750 162.450,130.150 162.000,133.000 C 161.550,135.850 161.700,145.300 162.000,148.000 C 162.300,150.700 163.400,150.400 164.000,151.000 C 164.600,151.600 165.250,151.850 166.000,152.000 C 166.750,152.150 168.250,152.150 169.000,152.000 C 169.750,151.850 170.550,151.450 171.000,151.000 C 171.450,150.550 171.850,152.000 172.000,149.000 C 172.150,146.000 172.300,134.000 172.000,131.000 C 171.700,128.000 170.750,129.450 170.000,129.000 C 169.250,128.550 167.750,128.000 167.000,128.000 Z"/>
    <path d="M 196.000,123.000 C 195.850,122.250 196.400,122.150 197.000,122.000 C 197.600,121.850 199.400,121.850 200.000,122.000 C 200.600,122.150 200.400,122.850 201.000,123.000 C 201.600,123.150 202.950,122.700 204.000,123.000 C 205.050,123.300 206.800,124.700 208.000,125.000 C 209.200,125.300 210.800,124.700 212.000,125.000 C 213.200,125.300 214.950,126.700 216.000,127.000 C 217.050,127.300 218.400,126.850 219.000,127.000 C 219.600,127.150 219.400,127.850 220.000,128.000 C 220.600,128.150 222.400,127.850 223.000,128.000 C 223.600,128.150 223.400,128.850 224.000,129.000 C 224.600,129.150 226.400,128.850 227.000,129.000 C 227.600,129.150 227.400,129.850 228.000,130.000 C 228.600,130.150 230.400,129.850 231.000,130.000 C 231.600,130.150 230.800,130.700 232.000,131.000 C 233.200,131.300 237.350,131.550 239.000,132.000 C 240.650,132.450 241.350,133.550 243.000,134.000 C 244.650,134.450 248.800,134.700 250.000,135.000 C 251.200,135.300 250.550,135.850 251.000,136.000 C 251.450,136.150 252.100,135.700 253.000,136.000 C 253.900,136.300 255.350,136.650 257.000,138.000 C 258.650,139.350 262.800,143.500 264.000,145.000 C 265.200,146.500 264.550,147.250 265.000,148.000 C 265.450,148.750 266.100,148.500 267.000,150.000 C 267.900,151.500 269.800,156.050 271.000,158.000 C 272.200,159.950 274.250,161.800 275.000,163.000 C 275.750,164.200 275.550,165.250 276.000,166.000 C 276.450,166.750 277.550,167.250 278.000,168.000 C 278.450,168.750 278.250,169.800 279.000,171.000 C 279.750,172.200 282.250,174.800 283.000,176.000 C 283.750,177.200 283.550,178.250 284.000,179.000 C 284.450,179.750 285.550,180.250 286.000,181.000 C 286.450,181.750 286.550,183.250 287.000,184.000 C 287.450,184.750 288.550,185.250 289.000,186.000 C 289.450,186.750 289.550,188.250 290.000,189.000 C 290.450,189.750 291.700,190.550 292.000,191.000 C 292.300,191.450 291.700,191.550 292.000,192.000 C 292.300,192.450 293.400,193.100 294.000,194.000 C 294.600,194.900 295.850,197.250 296.000,198.000 C 296.150,198.750 299.200,198.850 295.000,199.000 C 290.800,199.150 273.250,198.400 268.000,199.000 C 262.750,199.600 262.100,203.600 260.000,203.000 C 257.900,202.400 255.500,197.400 254.000,195.000 C 252.500,192.600 250.900,188.500 250.000,187.000 C 249.100,185.500 248.750,186.200 248.000,185.000 C 247.250,183.800 245.750,180.200 245.000,179.000 C 244.250,177.800 243.450,177.750 243.000,177.000 C 242.550,176.250 242.750,175.200 242.000,174.000 C 241.250,172.800 238.750,169.750 238.000,169.000 C 237.250,168.250 237.450,169.300 237.000,169.000 C 236.550,168.700 235.900,167.600 235.000,167.000 C 234.100,166.400 232.050,165.300 231.000,165.000 C 229.950,164.700 228.600,165.150 228.000,165.000 C 227.400,164.850 227.600,164.150 227.000,164.000 C 226.400,163.850 224.600,164.150 224.000,164.000 C 223.400,163.850 223.600,163.150 223.000,163.000 C 222.400,162.850 220.600,163.150 220.000,163.000 C 219.400,162.850 219.750,162.150 219.000,162.000 C 218.250,161.850 215.750,162.150 215.000,162.000 C 214.250,161.850 214.600,161.150 214.000,161.000 C 213.400,160.850 211.600,161.150 211.000,161.000 C 210.400,160.850 210.600,160.150 210.000,160.000 C 209.400,159.850 207.600,160.150 207.000,160.000 C 206.400,159.850 206.750,159.150 206.000,159.000 C 205.250,158.850 202.750,159.150 202.000,159.000 C 201.250,158.850 201.450,158.150 201.000,158.000 C 200.550,157.850 199.450,158.150 199.000,158.000 C 198.550,157.850 198.150,159.250 198.000,157.000 C 197.850,154.750 197.850,145.250 198.000,143.000 C 198.150,140.750 198.850,143.800 199.000,142.000 C 199.150,140.200 199.150,132.800 199.000,131.000 C 198.850,129.200 198.150,130.600 198.000,130.000 C 197.850,129.400 198.300,128.050 198.000,127.000 C 197.700,125.950 196.150,123.750 196.000,123.000 Z"/>
    <path d="M 163.000,114.000 C 164.050,113.850 167.950,113.850 169.000,114.000 C 170.050,114.150 169.400,114.850 170.000,115.000 C 170.600,115.150 172.400,114.850 173.000,115.000 C 173.600,115.150 173.400,115.850 174.000,116.000 C 174.600,116.150 176.250,115.850 177.000,116.000 C 177.750,116.150 177.650,115.800 179.000,117.000 C 180.350,118.200 184.650,122.350 186.000,124.000 C 187.350,125.650 187.700,126.950 188.000,128.000 C 188.300,129.050 187.850,130.400 188.000,131.000 C 188.150,131.600 188.850,130.200 189.000,132.000 C 189.150,133.800 189.150,141.200 189.000,143.000 C 188.850,144.800 188.150,141.300 188.000,144.000 C 187.850,146.700 188.150,158.300 188.000,161.000 C 187.850,163.700 187.150,159.450 187.000,162.000 C 186.850,164.550 187.150,175.450 187.000,178.000 C 186.850,180.550 186.150,176.450 186.000,179.000 C 185.850,181.550 186.150,192.450 186.000,195.000 C 185.850,197.550 185.150,193.450 185.000,196.000 C 184.850,198.550 185.150,209.450 185.000,212.000 C 184.850,214.550 184.150,210.450 184.000,213.000 C 183.850,215.550 184.150,226.450 184.000,229.000 C 183.850,231.550 183.150,228.650 183.000,230.000 C 182.850,231.350 183.150,236.650 183.000,238.000 C 182.850,239.350 186.500,238.850 182.000,239.000 C 177.500,239.150 157.650,239.450 153.000,239.000 C 148.350,238.550 151.150,236.600 151.000,236.000 C 150.850,235.400 152.000,235.300 152.000,235.000 C 152.000,234.700 151.150,236.550 151.000,234.000 C 150.850,231.450 151.150,220.550 151.000,218.000 C 150.850,215.450 150.150,219.550 150.000,217.000 C 149.850,214.450 150.150,203.550 150.000,201.000 C 149.850,198.450 149.150,202.550 149.000,200.000 C 148.850,197.450 149.150,186.550 149.000,184.000 C 148.850,181.450 148.150,185.400 148.000,183.000 C 147.850,180.600 148.150,170.400 148.000,168.000 C 147.850,165.600 147.150,169.700 147.000,167.000 C 146.850,164.300 147.150,152.700 147.000,150.000 C 146.850,147.300 146.150,152.000 146.000,149.000 C 145.850,146.000 145.700,133.300 146.000,130.000 C 146.300,126.700 147.700,127.750 148.000,127.000 C 148.300,126.250 147.250,126.200 148.000,125.000 C 148.750,123.800 152.100,119.900 153.000,119.000 C 153.900,118.100 153.100,119.600 154.000,119.000 C 154.900,118.400 157.800,115.600 159.000,115.000 C 160.200,114.400 161.400,115.150 162.000,115.000 C 162.600,114.850 161.950,114.150 163.000,114.000 Z"/>
    <path d="M 148.000,110.000 C 146.950,110.900 142.900,114.950 142.000,116.000 C 141.100,117.050 142.300,116.550 142.000,117.000 C 141.700,117.450 140.600,118.100 140.000,119.000 C 139.400,119.900 138.450,121.650 138.000,123.000 C 137.550,124.350 137.300,127.100 137.000,128.000 C 136.700,128.900 136.150,126.000 136.000,129.000 C 135.850,132.000 135.850,145.000 136.000,148.000 C 136.150,151.000 136.850,146.600 137.000,149.000 C 137.150,151.400 136.850,161.600 137.000,164.000 C 137.150,166.400 137.850,162.300 138.000,165.000 C 138.150,167.700 137.850,179.300 138.000,182.000 C 138.150,184.700 138.850,180.450 139.000,183.000 C 139.150,185.550 138.850,196.450 139.000,199.000 C 139.150,201.550 139.850,197.450 140.000,200.000 C 140.150,202.550 139.850,213.450 140.000,216.000 C 140.150,218.550 140.850,214.450 141.000,217.000 C 141.150,219.550 140.850,230.450 141.000,233.000 C 141.150,235.550 141.850,231.300 142.000,234.000 C 142.150,236.700 141.850,248.300 142.000,251.000 C 142.150,253.700 142.850,249.450 143.000,252.000 C 143.150,254.550 142.850,265.450 143.000,268.000 C 143.150,270.550 143.850,266.450 144.000,269.000 C 144.150,271.550 143.850,282.450 144.000,285.000 C 144.150,287.550 144.850,283.450 145.000,286.000 C 145.150,288.550 144.850,299.450 145.000,302.000 C 145.150,304.550 145.850,300.450 146.000,303.000 C 146.150,305.550 145.850,316.450 146.000,319.000 C 146.150,321.550 146.850,317.450 147.000,320.000 C 147.150,322.550 146.850,333.450 147.000,336.000 C 147.150,338.550 147.850,334.300 148.000,337.000 C 148.150,339.700 147.850,351.300 148.000,354.000 C 148.150,356.700 148.850,352.450 149.000,355.000 C 149.150,357.550 148.850,368.450 149.000,371.000 C 149.150,373.550 149.850,368.400 150.000,372.000 C 150.150,375.600 150.150,391.400 150.000,395.000 C 149.850,398.600 150.650,395.850 149.000,396.000 C 147.350,396.150 140.650,395.850 139.000,396.000 C 137.350,396.150 138.750,396.850 138.000,397.000 C 137.250,397.150 134.750,396.850 134.000,397.000 C 133.250,397.150 133.600,397.850 133.000,398.000 C 132.400,398.150 130.600,397.850 130.000,398.000 C 129.400,398.150 129.450,398.850 129.000,399.000 C 128.550,399.150 128.500,398.400 127.000,399.000 C 125.500,399.600 121.100,401.650 119.000,403.000 C 116.900,404.350 114.050,407.250 113.000,408.000 C 111.950,408.750 112.900,407.250 112.000,408.000 C 111.100,408.750 107.750,412.100 107.000,413.000 C 106.250,413.900 107.750,412.950 107.000,414.000 C 106.250,415.050 103.200,418.200 102.000,420.000 C 100.800,421.800 99.450,424.800 99.000,426.000 C 98.550,427.200 99.150,427.550 99.000,428.000 C 98.850,428.450 98.150,428.550 98.000,429.000 C 97.850,429.450 98.300,430.100 98.000,431.000 C 97.700,431.900 96.300,433.500 96.000,435.000 C 95.700,436.500 96.150,439.950 96.000,441.000 C 95.850,442.050 95.150,440.800 95.000,442.000 C 94.850,443.200 94.850,447.800 95.000,449.000 C 95.150,450.200 95.850,448.950 96.000,450.000 C 96.150,451.050 95.850,454.950 96.000,456.000 C 96.150,457.050 96.850,456.400 97.000,457.000 C 97.150,457.600 96.850,459.400 97.000,460.000 C 97.150,460.600 97.850,460.550 98.000,461.000 C 98.150,461.450 97.250,461.200 98.000,463.000 C 98.750,464.800 101.800,471.050 103.000,473.000 C 104.200,474.950 105.550,475.400 106.000,476.000 C 106.450,476.600 104.950,475.800 106.000,477.000 C 107.050,478.200 111.800,482.950 113.000,484.000 C 114.200,485.050 112.950,483.250 114.000,484.000 C 115.050,484.750 118.500,487.950 120.000,489.000 C 121.500,490.050 123.100,490.700 124.000,491.000 C 124.900,491.300 125.250,490.700 126.000,491.000 C 126.750,491.300 128.100,492.700 129.000,493.000 C 129.900,493.300 131.400,492.850 132.000,493.000 C 132.600,493.150 132.250,493.850 133.000,494.000 C 133.750,494.150 136.250,493.850 137.000,494.000 C 137.750,494.150 127.650,494.850 138.000,495.000 C 148.350,495.150 195.500,495.150 206.000,495.000 C 216.500,494.850 207.250,494.600 208.000,494.000 C 208.750,493.400 210.550,491.750 211.000,491.000 C 211.450,490.250 210.850,489.450 211.000,489.000 C 211.150,488.550 211.850,488.600 212.000,488.000 C 212.150,487.400 212.150,485.600 212.000,485.000 C 211.850,484.400 211.150,484.450 211.000,484.000 C 210.850,483.550 214.450,485.750 211.000,482.000 C 207.550,478.250 191.450,462.600 188.000,459.000 C 184.550,455.400 188.300,458.450 188.000,458.000 C 187.700,457.550 186.300,456.600 186.000,456.000 C 185.700,455.400 186.300,454.900 186.000,454.000 C 185.700,453.100 184.300,460.500 184.000,450.000 C 183.700,439.500 183.850,394.050 184.000,384.000 C 184.150,373.950 184.850,385.700 185.000,383.000 C 185.150,380.300 184.850,368.700 185.000,366.000 C 185.150,363.300 185.850,367.550 186.000,365.000 C 186.150,362.450 185.850,351.550 186.000,349.000 C 186.150,346.450 186.850,350.700 187.000,348.000 C 187.150,345.300 186.850,333.700 187.000,331.000 C 187.150,328.300 187.850,332.400 188.000,330.000 C 188.150,327.600 187.850,317.400 188.000,315.000 C 188.150,312.600 188.850,316.700 189.000,314.000 C 189.150,311.300 188.850,299.700 189.000,297.000 C 189.150,294.300 189.850,298.550 190.000,296.000 C 190.150,293.450 189.850,282.550 190.000,280.000 C 190.150,277.450 190.850,281.400 191.000,279.000 C 191.150,276.600 190.850,266.400 191.000,264.000 C 191.150,261.600 191.850,265.700 192.000,263.000 C 192.150,260.300 191.850,248.700 192.000,246.000 C 192.150,243.300 192.850,247.550 193.000,245.000 C 193.150,242.450 192.850,231.550 193.000,229.000 C 193.150,226.450 193.850,230.550 194.000,228.000 C 194.150,225.450 193.850,214.550 194.000,212.000 C 194.150,209.450 194.850,213.700 195.000,211.000 C 195.150,208.300 194.850,196.700 195.000,194.000 C 195.150,191.300 195.850,195.400 196.000,193.000 C 196.150,190.600 195.850,180.400 196.000,178.000 C 196.150,175.600 196.850,178.350 197.000,177.000 C 197.150,175.650 196.850,170.350 197.000,169.000 C 197.150,167.650 197.400,168.150 198.000,168.000 C 198.600,167.850 200.400,167.850 201.000,168.000 C 201.600,168.150 201.400,168.850 202.000,169.000 C 202.600,169.150 204.400,168.850 205.000,169.000 C 205.600,169.150 205.400,169.850 206.000,170.000 C 206.600,170.150 208.400,169.850 209.000,170.000 C 209.600,170.150 209.400,170.850 210.000,171.000 C 210.600,171.150 212.400,170.850 213.000,171.000 C 213.600,171.150 213.250,171.850 214.000,172.000 C 214.750,172.150 217.250,171.850 218.000,172.000 C 218.750,172.150 218.400,172.850 219.000,173.000 C 219.600,173.150 221.400,172.850 222.000,173.000 C 222.600,173.150 222.400,173.850 223.000,174.000 C 223.600,174.150 225.400,173.850 226.000,174.000 C 226.600,174.150 226.550,174.850 227.000,175.000 C 227.450,175.150 228.100,174.400 229.000,175.000 C 229.900,175.600 232.400,178.250 233.000,179.000 C 233.600,179.750 232.400,179.100 233.000,180.000 C 233.600,180.900 236.250,183.800 237.000,185.000 C 237.750,186.200 237.550,187.250 238.000,188.000 C 238.450,188.750 239.550,189.250 240.000,190.000 C 240.450,190.750 240.250,191.800 241.000,193.000 C 241.750,194.200 244.250,196.800 245.000,198.000 C 245.750,199.200 245.550,200.250 246.000,201.000 C 246.450,201.750 247.100,201.500 248.000,203.000 C 248.900,204.500 250.800,209.050 252.000,211.000 C 253.200,212.950 255.400,213.750 256.000,216.000 C 256.600,218.250 256.150,224.350 256.000,226.000 C 255.850,227.650 255.150,225.350 255.000,227.000 C 254.850,228.650 255.150,235.350 255.000,237.000 C 254.850,238.650 254.150,236.200 254.000,238.000 C 253.850,239.800 254.150,247.200 254.000,249.000 C 253.850,250.800 253.150,248.200 253.000,250.000 C 252.850,251.800 253.150,259.200 253.000,261.000 C 252.850,262.800 252.150,260.200 252.000,262.000 C 251.850,263.800 252.150,271.200 252.000,273.000 C 251.850,274.800 251.150,272.350 251.000,274.000 C 250.850,275.650 251.150,282.350 251.000,284.000 C 250.850,285.650 250.150,283.050 250.000,285.000 C 249.850,286.950 250.150,295.050 250.000,297.000 C 249.850,298.950 249.150,296.350 249.000,298.000 C 248.850,299.650 249.150,306.350 249.000,308.000 C 248.850,309.650 248.150,307.200 248.000,309.000 C 247.850,310.800 248.150,318.200 248.000,320.000 C 247.850,321.800 247.150,319.200 247.000,321.000 C 246.850,322.800 247.150,330.200 247.000,332.000 C 246.850,333.800 246.150,331.350 246.000,333.000 C 245.850,334.650 246.150,341.350 246.000,343.000 C 245.850,344.650 245.150,342.200 245.000,344.000 C 244.850,345.800 245.150,353.200 245.000,355.000 C 244.850,356.800 244.150,354.050 244.000,356.000 C 243.850,357.950 243.850,365.900 244.000,368.000 C 244.150,370.100 244.400,369.250 245.000,370.000 C 245.600,370.750 247.250,372.400 248.000,373.000 C 248.750,373.600 248.050,373.850 250.000,374.000 C 251.950,374.150 259.200,373.850 261.000,374.000 C 262.800,374.150 261.850,372.600 262.000,375.000 C 262.150,377.400 262.450,387.450 262.000,390.000 C 261.550,392.550 260.050,391.700 259.000,392.000 C 257.950,392.300 255.750,391.850 255.000,392.000 C 254.250,392.150 254.600,392.850 254.000,393.000 C 253.400,393.150 251.600,392.850 251.000,393.000 C 250.400,393.150 250.450,393.850 250.000,394.000 C 249.550,394.150 249.500,393.400 248.000,394.000 C 246.500,394.600 241.500,397.100 240.000,398.000 C 238.500,398.900 238.450,399.700 238.000,400.000 C 237.550,400.300 238.500,398.800 237.000,400.000 C 235.500,401.200 229.350,406.650 228.000,408.000 C 226.650,409.350 228.600,408.250 228.000,409.000 C 227.400,409.750 224.750,411.950 224.000,413.000 C 223.250,414.050 223.450,415.250 223.000,416.000 C 222.550,416.750 221.600,417.100 221.000,418.000 C 220.400,418.900 219.300,421.100 219.000,422.000 C 218.700,422.900 219.300,423.100 219.000,424.000 C 218.700,424.900 217.300,426.950 217.000,428.000 C 216.700,429.050 217.150,430.400 217.000,431.000 C 216.850,431.600 216.150,430.950 216.000,432.000 C 215.850,433.050 216.150,436.950 216.000,438.000 C 215.850,439.050 215.150,437.650 215.000,439.000 C 214.850,440.350 214.850,445.650 215.000,447.000 C 215.150,448.350 215.850,447.100 216.000,448.000 C 216.150,448.900 215.850,452.100 216.000,453.000 C 216.150,453.900 216.850,453.400 217.000,454.000 C 217.150,454.600 216.850,456.400 217.000,457.000 C 217.150,457.600 217.700,457.100 218.000,458.000 C 218.300,458.900 218.400,461.350 219.000,463.000 C 219.600,464.650 220.800,467.200 222.000,469.000 C 223.200,470.800 226.250,473.950 227.000,475.000 C 227.750,476.050 226.100,474.950 227.000,476.000 C 227.900,477.050 231.950,481.100 233.000,482.000 C 234.050,482.900 232.950,481.250 234.000,482.000 C 235.050,482.750 237.900,485.650 240.000,487.000 C 242.100,488.350 246.500,490.400 248.000,491.000 C 249.500,491.600 249.100,490.700 250.000,491.000 C 250.900,491.300 252.800,492.700 254.000,493.000 C 255.200,493.300 257.250,492.850 258.000,493.000 C 258.750,493.150 228.700,493.850 259.000,494.000 C 289.300,494.150 429.700,494.150 460.000,494.000 C 490.300,493.850 460.250,493.150 461.000,493.000 C 461.750,492.850 464.250,493.150 465.000,493.000 C 465.750,492.850 465.100,492.300 466.000,492.000 C 466.900,491.700 469.050,491.750 471.000,491.000 C 472.950,490.250 476.900,488.350 479.000,487.000 C 481.100,485.650 483.950,482.750 485.000,482.000 C 486.050,481.250 484.500,483.500 486.000,482.000 C 487.500,480.500 493.500,473.950 495.000,472.000 C 496.500,470.050 495.400,470.050 496.000,469.000 C 496.600,467.950 498.550,465.900 499.000,465.000 C 499.450,464.100 498.550,464.200 499.000,463.000 C 499.450,461.800 501.550,458.350 502.000,457.000 C 502.450,455.650 501.850,454.600 502.000,454.000 C 502.150,453.400 502.850,453.900 503.000,453.000 C 503.150,452.100 502.850,448.900 503.000,448.000 C 503.150,447.100 503.850,448.500 504.000,447.000 C 504.150,445.500 504.150,439.500 504.000,438.000 C 503.850,436.500 503.150,437.900 503.000,437.000 C 502.850,436.100 503.150,432.900 503.000,432.000 C 502.850,431.100 502.150,431.600 502.000,431.000 C 501.850,430.400 502.150,428.600 502.000,428.000 C 501.850,427.400 501.150,427.450 501.000,427.000 C 500.850,426.550 501.900,427.100 501.000,425.000 C 500.100,422.900 496.500,415.400 495.000,413.000 C 493.500,410.600 491.600,409.750 491.000,409.000 C 490.400,408.250 492.350,409.350 491.000,408.000 C 489.650,406.650 483.500,401.200 482.000,400.000 C 480.500,398.800 481.450,400.300 481.000,400.000 C 480.550,399.700 480.500,398.900 479.000,398.000 C 477.500,397.100 472.500,394.600 471.000,394.000 C 469.500,393.400 469.450,394.150 469.000,394.000 C 468.550,393.850 468.600,393.150 468.000,393.000 C 467.400,392.850 465.600,393.150 465.000,393.000 C 464.400,392.850 464.750,392.150 464.000,392.000 C 463.250,391.850 460.750,392.150 460.000,392.000 C 459.250,391.850 459.900,391.150 459.000,391.000 C 458.100,390.850 454.900,391.150 454.000,391.000 C 453.100,390.850 453.150,392.250 453.000,390.000 C 452.850,387.750 452.700,378.400 453.000,376.000 C 453.300,373.600 449.000,374.300 455.000,374.000 C 461.000,373.700 486.700,374.300 493.000,374.000 C 499.300,373.700 495.950,372.750 497.000,372.000 C 498.050,371.250 499.400,369.750 500.000,369.000 C 500.600,368.250 500.850,367.600 501.000,367.000 C 501.150,366.400 500.850,365.450 501.000,365.000 C 501.150,364.550 501.850,365.050 502.000,364.000 C 502.150,362.950 502.150,359.050 502.000,358.000 C 501.850,356.950 501.150,357.900 501.000,357.000 C 500.850,356.100 501.150,352.900 501.000,352.000 C 500.850,351.100 500.150,351.750 500.000,351.000 C 499.850,350.250 500.150,347.750 500.000,347.000 C 499.850,346.250 499.150,346.750 499.000,346.000 C 498.850,345.250 499.150,342.750 499.000,342.000 C 498.850,341.250 498.150,341.750 498.000,341.000 C 497.850,340.250 498.150,337.750 498.000,337.000 C 497.850,336.250 497.150,336.750 497.000,336.000 C 496.850,335.250 497.150,332.750 497.000,332.000 C 496.850,331.250 496.150,331.900 496.000,331.000 C 495.850,330.100 496.150,326.900 496.000,326.000 C 495.850,325.100 495.150,325.600 495.000,325.000 C 494.850,324.400 495.150,322.600 495.000,322.000 C 494.850,321.400 494.150,321.450 494.000,321.000 C 493.850,320.550 494.150,319.600 494.000,319.000 C 493.850,318.400 493.750,317.900 493.000,317.000 C 492.250,316.100 490.050,313.750 489.000,313.000 C 487.950,312.250 486.750,312.450 486.000,312.000 C 485.250,311.550 484.300,312.700 484.000,310.000 C 483.700,307.300 484.450,297.000 484.000,294.000 C 483.550,291.000 481.450,290.750 481.000,290.000 C 480.550,289.250 481.600,289.600 481.000,289.000 C 480.400,288.400 477.900,286.450 477.000,286.000 C 476.100,285.550 475.450,286.150 475.000,286.000 C 474.550,285.850 482.550,285.150 474.000,285.000 C 465.450,284.850 427.000,284.700 418.000,285.000 C 409.000,285.300 415.200,286.100 414.000,287.000 C 412.800,287.900 410.750,290.100 410.000,291.000 C 409.250,291.900 409.150,292.400 409.000,293.000 C 408.850,293.600 409.150,294.550 409.000,295.000 C 408.850,295.450 408.150,293.900 408.000,296.000 C 407.850,298.100 408.150,306.900 408.000,309.000 C 407.850,311.100 408.800,309.850 407.000,310.000 C 405.200,310.150 397.950,310.300 396.000,310.000 C 394.050,309.700 394.450,309.650 394.000,308.000 C 393.550,306.350 393.300,300.500 393.000,299.000 C 392.700,297.500 392.150,298.600 392.000,298.000 C 391.850,297.400 392.150,295.600 392.000,295.000 C 391.850,294.400 391.150,294.750 391.000,294.000 C 390.850,293.250 391.150,290.750 391.000,290.000 C 390.850,289.250 390.150,289.600 390.000,289.000 C 389.850,288.400 390.150,286.600 390.000,286.000 C 389.850,285.400 389.300,286.500 389.000,285.000 C 388.700,283.500 388.300,277.500 388.000,276.000 C 387.700,274.500 387.150,275.600 387.000,275.000 C 386.850,274.400 387.150,272.600 387.000,272.000 C 386.850,271.400 386.150,271.750 386.000,271.000 C 385.850,270.250 386.150,267.750 386.000,267.000 C 385.850,266.250 385.150,266.600 385.000,266.000 C 384.850,265.400 385.150,263.600 385.000,263.000 C 384.850,262.400 384.150,262.750 384.000,262.000 C 383.850,261.250 384.150,258.750 384.000,258.000 C 383.850,257.250 383.150,257.600 383.000,257.000 C 382.850,256.400 383.150,254.600 383.000,254.000 C 382.850,253.400 382.300,254.500 382.000,253.000 C 381.700,251.500 381.300,245.500 381.000,244.000 C 380.700,242.500 380.150,243.600 380.000,243.000 C 379.850,242.400 380.150,240.600 380.000,240.000 C 379.850,239.400 379.150,239.750 379.000,239.000 C 378.850,238.250 379.150,235.750 379.000,235.000 C 378.850,234.250 378.150,234.600 378.000,234.000 C 377.850,233.400 378.150,231.600 378.000,231.000 C 377.850,230.400 377.150,230.750 377.000,230.000 C 376.850,229.250 377.150,226.750 377.000,226.000 C 376.850,225.250 376.150,225.600 376.000,225.000 C 375.850,224.400 376.150,222.600 376.000,222.000 C 375.850,221.400 375.300,222.500 375.000,221.000 C 374.700,219.500 374.300,213.500 374.000,212.000 C 373.700,210.500 373.150,211.450 373.000,211.000 C 372.850,210.550 373.300,209.900 373.000,209.000 C 372.700,208.100 371.900,206.200 371.000,205.000 C 370.100,203.800 368.200,201.900 367.000,201.000 C 365.800,200.100 371.700,199.300 363.000,199.000 C 354.300,198.700 317.550,199.450 309.000,199.000 C 300.450,198.550 306.600,196.900 306.000,196.000 C 305.400,195.100 305.450,193.750 305.000,193.000 C 304.550,192.250 303.450,191.750 303.000,191.000 C 302.550,190.250 302.450,188.750 302.000,188.000 C 301.550,187.250 300.900,187.500 300.000,186.000 C 299.100,184.500 297.200,179.950 296.000,178.000 C 294.800,176.050 292.750,174.200 292.000,173.000 C 291.250,171.800 291.450,170.750 291.000,170.000 C 290.550,169.250 289.900,169.500 289.000,168.000 C 288.100,166.500 286.200,161.950 285.000,160.000 C 283.800,158.050 282.200,156.950 281.000,155.000 C 279.800,153.050 278.200,148.950 277.000,147.000 C 275.800,145.050 273.750,143.200 273.000,142.000 C 272.250,140.800 273.500,140.800 272.000,139.000 C 270.500,137.200 265.550,131.950 263.000,130.000 C 260.450,128.050 256.650,126.600 255.000,126.000 C 253.350,125.400 252.600,126.150 252.000,126.000 C 251.400,125.850 252.200,125.300 251.000,125.000 C 249.800,124.700 245.650,124.450 244.000,124.000 C 242.350,123.550 241.050,122.300 240.000,122.000 C 238.950,121.700 237.600,122.150 237.000,122.000 C 236.400,121.850 236.600,121.150 236.000,121.000 C 235.400,120.850 233.600,121.150 233.000,121.000 C 232.400,120.850 232.600,120.150 232.000,120.000 C 231.400,119.850 229.600,120.150 229.000,120.000 C 228.400,119.850 228.600,119.150 228.000,119.000 C 227.400,118.850 225.600,119.150 225.000,119.000 C 224.400,118.850 224.600,118.150 224.000,118.000 C 223.400,117.850 221.600,118.150 221.000,118.000 C 220.400,117.850 221.200,117.300 220.000,117.000 C 218.800,116.700 214.650,116.450 213.000,116.000 C 211.350,115.550 210.050,114.300 209.000,114.000 C 207.950,113.700 206.600,114.150 206.000,114.000 C 205.400,113.850 205.600,113.150 205.000,113.000 C 204.400,112.850 202.600,113.150 202.000,113.000 C 201.400,112.850 201.600,112.150 201.000,112.000 C 200.400,111.850 198.600,112.150 198.000,112.000 C 197.400,111.850 197.600,111.150 197.000,111.000 C 196.400,110.850 194.600,111.150 194.000,111.000 C 193.400,110.850 194.200,110.300 193.000,110.000 C 191.800,109.700 187.200,109.300 186.000,109.000 C 184.800,108.700 185.450,108.150 185.000,108.000 C 184.550,107.850 183.450,108.150 183.000,108.000 C 182.550,107.850 182.450,107.150 182.000,107.000 C 181.550,106.850 180.750,107.300 180.000,107.000 C 179.250,106.700 177.900,105.300 177.000,105.000 C 176.100,104.700 174.600,105.150 174.000,105.000 C 173.400,104.850 174.800,104.150 173.000,104.000 C 171.200,103.850 163.800,103.850 162.000,104.000 C 160.200,104.150 161.600,104.850 161.000,105.000 C 160.400,105.150 158.600,104.850 158.000,105.000 C 157.400,105.150 157.450,105.850 157.000,106.000 C 156.550,106.150 155.900,105.700 155.000,106.000 C 154.100,106.300 151.900,107.400 151.000,108.000 C 150.100,108.600 149.450,109.700 149.000,110.000 C 148.550,110.300 149.050,109.100 148.000,110.000 Z"/>
  </g>
</svg>
