<?xml version="1.0" encoding="utf-8"?>
<svg xmlns="http://www.w3.org/2000/svg"
     width="600" height="600"
     viewBox="0 0 600 600">
  <rect width="100%" height="100%" fill="white"/>
  <g fill="none" stroke="black" stroke-width="2.0">
    <path d="M 446.000,428.000 L 465.000,437.000 L 456.000,457.000 L 436.000,447.000 L 446.000,428.000 Z"/>
    <path d="M 283.000,429.000 L 429.000,428.000 L 430.000,457.000 L 284.000,458.000 L 283.000,429.000 Z"/>
    <path d="M 258.000,428.000 L 277.000,438.000 L 267.000,457.000 L 248.000,448.000 L 258.000,428.000 Z"/>
    <path d="M 238.000,436.000 L 256.000,467.000 L 457.000,467.000 L 476.000,445.000 L 457.000,418.000 L 257.000,418.000 L 238.000,436.000 Z"/>
    <path d="M 112.000,423.000 L 173.000,406.000 L 175.000,455.000 L 199.000,484.000 L 123.000,479.000 L 112.000,423.000 Z"/>
    <path d="M 225.000,438.000 L 260.000,401.000 L 459.000,401.000 L 494.000,447.000 L 460.000,484.000 L 260.000,484.000 L 225.000,438.000 Z"/>
    <path d="M 272.000,375.000 L 442.000,374.000 L 444.000,390.000 L 273.000,391.000 L 272.000,375.000 Z"/>
    <path d="M 257.000,322.000 L 481.000,320.000 L 492.000,362.000 L 255.000,364.000 L 257.000,322.000 Z"/>
    <path d="M 418.000,297.000 L 472.000,295.000 L 474.000,309.000 L 418.000,297.000 Z"/>
    <path d="M 319.000,293.000 L 380.000,292.000 L 385.000,309.000 L 320.000,310.000 L 319.000,293.000 Z"/>
    <path d="M 259.000,296.000 L 309.000,292.000 L 310.000,309.000 L 259.000,310.000 L 259.000,296.000 Z"/>
    <path d="M 153.000,249.000 L 182.000,250.000 L 174.000,371.000 L 159.000,370.000 L 153.000,249.000 Z"/>
    <path d="M 320.000,209.000 L 363.000,211.000 L 377.000,282.000 L 319.000,280.000 L 320.000,209.000 Z"/>
    <path d="M 269.000,209.000 L 310.000,210.000 L 308.000,282.000 L 261.000,281.000 L 269.000,209.000 Z"/>
    <path d="M 196.000,123.000 L 257.000,138.000 L 296.000,198.000 L 260.000,203.000 L 238.000,169.000 L 199.000,158.000 L 196.000,123.000 Z"/>
    <path d="M 163.000,114.000 L 189.000,132.000 L 182.000,239.000 L 151.000,236.000 L 146.000,130.000 L 163.000,114.000 Z"/>
    <path d="M 148.000,110.000 L 150.000,395.000 L 102.000,420.000 L 106.000,477.000 L 138.000,495.000 L 212.000,488.000 L 184.000,450.000 L 201.000,168.000 L 256.000,216.000 L 244.000,368.000 L 262.000,390.000 L 219.000,422.000 L 227.000,476.000 L 259.000,494.000 L 486.000,482.000 L 501.000,425.000 L 453.000,390.000 L 455.000,374.000 L 502.000,364.000 L 481.000,289.000 L 418.000,285.000 L 396.000,310.000 L 367.000,201.000 L 309.000,199.000 L 255.000,126.000 L 148.000,110.000 Z"/>
  </g>
</svg>
