<?xml version="1.0" encoding="utf-8"?>
<svg xmlns="http://www.w3.org/2000/svg"
     width="600" height="600"
     viewBox="0 0 600 600">
  <rect width="100%" height="100%" fill="white"/>
  <g fill="none" stroke="black" stroke-width="2.0">
    <path d="M 102.394,65.382 L 166.616,108.760 L 96.752,65.758"/>
    <path d="M 5.829,4.285 L 133.832,95.792 L 16.197,11.417"/>
    <path d="M 73.252,45.180 L 178.206,111.346 L 70.006,44.132"/>
    <path d="M 7.248,4.437 L 162.184,99.355 L 19.179,11.764"/>
    <path d="M 115.947,70.181 L 150.380,90.798 L 174.409,104.968 L 187.752,112.552 L 193.903,115.716 L 196.576,116.751 L 200.000,117.226 L 203.000,117.881 L 210.000,119.868 L 247.437,129.401 L 246.206,128.558 L 240.331,125.317 L 224.827,117.090 L 150.981,78.474"/>
    <path d="M 114.672,71.559 L 171.758,108.019 L 189.679,120.716 L 192.000,124.000 L 193.886,137.000 L 192.572,156.638 L 190.879,156.206 L 185.663,152.790 L 173.152,143.186 L 115.769,96.396"/>
    <path d="M 86.471,73.359 L 111.693,95.280 L 128.874,110.710 L 137.886,119.451 L 141.433,123.683 L 142.354,125.734 L 142.338,127.000 L 141.438,130.000 L 141.038,133.000 L 141.038,147.000 L 141.962,154.000 L 142.038,164.000 L 142.962,171.000 L 143.038,181.000 L 143.962,188.000 L 144.038,198.000 L 144.962,205.000 L 145.038,216.000 L 145.897,222.000 L 146.038,232.000 L 146.224,234.000 L 146.776,237.000 L 146.571,237.459 L 145.346,236.316 L 141.401,230.711 L 131.880,215.856 L 114.079,187.202 L 88.176,144.982"/>
    <path d="M 37.399,32.095 L 164.794,138.107 L 66.827,54.400"/>
    <path d="M 136.585,101.746 L 203.296,151.879 L 217.243,162.659 L 223.490,168.250 L 200.000,163.103 L 195.881,161.219 L 176.203,146.237 L 117.147,97.774"/>
    <path d="M 115.169,99.152 L 172.255,149.288 L 184.701,160.817 L 191.574,168.638 L 191.962,172.000 L 191.038,179.000 L 190.962,190.000 L 190.103,196.000 L 189.962,207.000 L 189.103,213.000 L 188.962,223.000 L 188.038,230.000 L 187.998,238.000 L 187.574,238.457 L 185.907,237.305 L 180.788,231.673 L 168.545,216.753 L 112.570,145.582"/>
    <path d="M 29.989,18.666 L 267.952,165.391 L 29.658,18.151"/>
    <path d="M 24.619,18.562 L 222.677,169.087 L 24.950,19.077"/>
    <path d="M 178.095,114.148 L 299.830,196.000 L 180.513,120.389"/>
    <path d="M 179.773,122.167 L 286.506,196.180 L 295.330,203.539 L 295.000,203.998 L 273.000,204.038 L 268.079,201.971 L 241.696,183.518 L 160.935,122.864"/>
    <path d="M 124.873,81.633 L 307.303,203.545 L 181.929,122.167"/>
    <path d="M 216.963,122.743 L 346.150,196.431 L 354.997,201.850 L 357.193,203.583 L 357.000,204.011 L 321.000,204.000 L 319.303,203.547 L 315.551,201.758 L 306.077,196.245 L 284.760,183.021 L 189.727,122.367"/>
    <path d="M 9.707,7.842 L 221.465,178.275 L 26.687,21.388"/>
    <path d="M 188.349,170.176 L 243.680,219.797 L 281.708,253.537 L 302.063,271.115 L 310.549,277.854 L 313.303,279.366 L 314.000,279.000 L 314.000,211.000 L 313.303,209.547 L 310.549,206.760 L 302.063,200.258 L 281.708,186.072 L 243.680,160.468 L 188.349,123.745"/>
    <path d="M 229.736,170.176 L 297.217,219.797 L 343.574,253.537 L 368.338,271.115 L 378.566,277.854 L 381.750,279.366 L 382.398,279.000 L 381.787,275.000 L 379.600,264.000 L 376.400,250.000 L 374.600,241.000 L 368.598,214.000 L 367.542,212.541 L 364.060,209.727 L 353.863,203.144 L 329.775,188.763 L 285.046,162.797 L 220.167,125.544"/>
    <path d="M 156.558,126.144 L 234.159,189.661 L 251.078,204.106 L 258.131,210.716 L 260.421,213.539 L 261.000,215.000 L 260.897,221.000 L 259.103,237.000 L 258.897,245.000 L 257.103,261.000 L 256.897,268.000 L 256.038,274.000 L 256.000,279.000 L 255.432,279.366 L 253.186,277.854 L 246.268,271.115 L 229.673,253.537 L 153.558,170.176"/>
    <path d="M 89.554,146.360 L 134.934,218.907 L 150.386,241.318 L 154.000,244.000 L 180.000,244.000 L 180.585,243.459 L 179.942,241.318 L 164.718,218.907 L 110.792,146.360"/>
    <path d="M 88.187,147.738 L 114.118,191.510 L 131.985,221.958 L 141.636,238.738 L 145.784,246.320 L 147.274,249.459 L 147.776,251.000 L 147.989,254.000 L 148.038,267.000 L 148.962,274.000 L 149.038,284.000 L 149.224,286.000 L 149.897,290.000 L 150.038,301.000 L 150.962,308.000 L 151.038,318.000 L 151.962,325.000 L 152.038,336.000 L 152.224,338.000 L 152.897,342.000 L 153.038,352.000 L 153.962,359.000 L 154.105,370.000 L 153.889,370.164 L 152.724,367.854 L 148.772,358.655 L 138.957,335.178 L 93.137,224.761"/>
    <path d="M 107.771,224.761 L 139.513,290.417 L 161.368,335.178 L 173.093,358.655 L 177.995,367.854 L 179.592,370.164 L 180.000,370.000 L 180.103,367.000 L 180.962,361.000 L 181.038,350.000 L 181.962,343.000 L 182.103,333.000 L 182.962,327.000 L 183.103,316.000 L 183.962,310.000 L 184.038,299.000 L 184.962,292.000 L 185.038,282.000 L 185.962,275.000 L 186.038,265.000 L 186.962,258.000 L 187.000,251.000 L 186.585,249.459 L 184.945,246.320 L 179.891,238.738 L 167.769,221.958 L 145.122,191.510 L 112.170,147.738"/>
    <path d="M 154.936,171.554 L 200.823,221.951 L 232.724,256.588 L 250.281,275.128 L 258.188,282.856 L 261.432,285.366 L 263.000,286.000 L 307.000,286.000 L 307.303,285.366 L 305.547,282.856 L 298.050,275.128 L 278.657,256.588 L 186.971,171.554"/>
    <path d="M 189.727,171.554 L 245.834,221.951 L 284.760,256.588 L 306.077,275.128 L 315.551,282.856 L 319.303,285.366 L 321.000,286.000 L 376.000,286.000 L 376.150,285.366 L 373.788,282.856 L 364.427,275.128 L 340.561,256.588 L 295.073,221.951 L 228.360,171.554"/>
    <path d="M 233.337,187.571 L 348.984,279.554 L 384.622,306.536 L 388.600,308.000 L 385.625,292.000 L 380.876,286.870 L 230.364,172.332"/>
    <path d="M 153.158,172.932 L 252.121,287.859 L 254.602,293.000 L 253.962,308.000 L 227.382,279.554 L 151.862,187.571"/>
    <path d="M 188.349,172.932 L 310.549,287.859 L 314.000,293.000 L 314.000,308.000 L 310.549,306.536 L 188.349,187.571"/>
    <path d="M 284.145,174.450 L 423.997,260.673 L 453.892,279.338 L 465.766,287.025 L 468.944,289.457 L 469.000,290.038 L 424.000,290.011 L 422.075,289.393 L 417.419,286.904 L 405.161,279.162 L 377.167,260.474 L 325.767,225.431 L 251.510,174.329"/>
    <path d="M 287.123,188.171 L 429.619,280.451 L 478.998,309.000 L 478.598,299.000 L 286.525,176.531"/>
    <path d="M 248.109,177.730 L 412.120,299.348 L 413.000,308.000 L 370.527,279.554 L 247.733,187.571"/>
    <path d="M 153.137,188.949 L 198.495,244.456 L 230.033,282.605 L 247.396,303.025 L 255.221,311.538 L 258.439,314.301 L 260.000,315.000 L 307.000,315.000 L 307.303,314.301 L 305.547,311.538 L 298.050,303.025 L 278.657,282.605 L 241.526,244.456 L 186.971,188.949"/>
    <path d="M 189.727,188.949 L 245.834,244.456 L 284.760,282.605 L 306.077,303.025 L 315.551,311.538 L 319.303,314.301 L 321.000,315.000 L 382.000,315.000 L 382.137,314.301 L 379.722,311.538 L 370.199,303.025 L 345.944,282.605 L 299.730,244.456 L 231.959,188.949"/>
    <path d="M 234.715,188.949 L 389.727,311.538 L 396.000,315.000 L 406.000,315.000 L 246.355,188.949"/>
    <path d="M 285.944,188.949 L 369.574,244.456 L 426.689,282.605 L 456.778,303.025 L 468.733,311.538 L 471.937,314.301 L 472.000,315.000 L 420.000,315.000 L 418.084,314.301 L 413.463,311.538 L 401.313,303.025 L 373.578,282.605 L 322.663,244.456 L 249.111,188.949"/>
    <path d="M 158.779,221.340 L 236.491,331.052 L 259.063,364.944 L 260.408,368.181 L 260.000,368.998 L 256.000,368.774 L 252.116,367.725 L 250.554,366.633 L 249.275,363.987 L 249.103,356.000 L 252.011,322.000 L 249.322,316.540 L 226.382,285.657 L 151.535,190.327"/>
    <path d="M 49.209,32.433 L 458.271,300.673 L 108.461,70.954"/>
    <path d="M 297.320,218.762 L 444.870,326.207 L 490.521,357.964 L 494.891,360.186 L 495.996,360.000 L 494.787,350.000 L 489.998,326.000 L 488.721,324.292 L 484.209,320.496 L 438.814,289.245 L 293.159,192.726"/>
    <path d="M 267.349,221.340 L 345.517,286.363 L 398.877,331.052 L 426.956,354.973 L 438.074,364.944 L 441.006,368.181 L 441.000,369.000 L 274.000,369.000 L 272.408,368.181 L 269.068,364.944 L 260.863,354.973 L 242.593,331.052 L 209.360,286.363 L 161.535,221.340"/>
    <path d="M 295.542,220.552 L 441.043,330.137 L 472.170,354.170 L 484.557,364.328 L 487.902,367.775 L 488.000,368.774 L 455.000,369.000 L 448.078,364.944 L 404.979,331.052 L 270.105,221.340"/>
    <path d="M 160.157,236.158 L 264.065,386.645 L 267.000,389.000 L 267.000,376.000 L 264.065,369.946 L 160.157,222.718"/>
    <path d="M 268.727,222.718 L 443.076,369.946 L 448.000,376.000 L 448.000,389.000 L 443.076,386.645 L 268.727,236.158"/>
    <path d="M 94.353,225.139 L 158.299,370.905 L 162.000,375.002 L 172.000,375.038 L 105.993,225.436"/>
    <path d="M 93.351,226.317 L 153.388,375.880 L 155.011,382.000 L 155.000,394.000 L 153.296,391.590 L 92.975,239.157"/>
    <path d="M 107.371,226.917 L 177.033,376.869 L 179.000,383.000 L 179.000,394.000 L 107.371,239.157"/>
    <path d="M 152.537,238.630 L 260.000,396.235 L 158.779,237.536"/>
    <path d="M 161.535,237.536 L 209.360,307.316 L 242.593,355.275 L 260.863,380.946 L 269.068,391.647 L 272.408,395.122 L 274.000,396.000 L 441.000,396.000 L 442.000,395.998 L 442.004,395.113 L 439.063,391.620 L 427.918,380.881 L 399.774,355.154 L 346.293,307.140 L 267.949,237.336"/>
    <path d="M 278.746,238.630 L 460.000,396.438 L 452.008,395.113 L 269.506,237.336"/>
    <path d="M 54.350,90.138 L 243.693,395.011 L 100.063,159.705"/>
    <path d="M 106.670,90.138 L 466.708,395.444 L 187.654,159.705"/>
    <path d="M 92.197,240.335 L 149.000,400.998 L 138.000,401.411 L 134.562,397.449 L 79.957,241.508"/>
    <path d="M 93.753,240.335 L 157.310,396.565 L 161.000,400.998 L 172.000,401.000 L 105.993,240.535"/>
    <path d="M 109.265,275.147 L 179.016,450.931 L 180.338,454.000 L 179.438,451.000 L 179.235,450.000 L 179.038,448.000 L 179.000,408.000 L 178.603,406.111 L 177.033,401.595 L 172.195,389.769 L 160.592,362.812 L 138.913,313.350 L 107.371,241.913"/>
    <path d="M 27.252,91.257 L 123.393,400.378 L 51.643,161.706"/>
    <path d="M 135.123,252.710 L 223.295,424.071 L 222.338,429.000 L 132.602,260.151"/>
    <path d="M 295.634,252.110 L 475.056,406.123 L 496.286,428.000 L 298.117,259.551"/>
    <path d="M 23.849,94.661 L 103.042,421.316 L 41.322,172.092"/>
    <path d="M 164.777,253.693 L 270.000,422.141 L 259.000,423.226 L 254.232,418.967 L 152.537,254.520"/>
    <path d="M 260.751,253.331 L 336.980,327.670 L 389.008,378.723 L 416.374,406.023 L 427.195,417.389 L 430.031,421.073 L 430.000,422.002 L 429.000,422.000 L 285.000,422.000 L 284.000,422.002 L 282.386,421.073 L 278.958,417.389 L 270.483,406.023 L 251.565,378.723 L 217.120,327.670 L 167.533,253.331"/>
    <path d="M 262.907,253.693 L 423.439,406.520 L 441.033,421.297 L 454.000,423.226 L 275.147,254.520"/>
    <path d="M 166.593,255.109 L 278.256,428.062 L 280.564,435.000 L 281.673,442.000 L 279.371,455.000 L 278.498,454.975 L 275.796,451.920 L 249.701,411.437 L 166.658,275.747"/>
    <path d="M 173.373,173.292 L 432.473,427.097 L 174.366,170.047"/>
    <path d="M 280.065,272.148 L 419.477,406.054 L 463.218,445.986 L 468.895,449.000 L 468.895,436.000 L 280.065,258.708"/>
    <path d="M 3.839,16.637 L 87.136,374.393 L 10.487,44.581"/>
    <path d="M 147.055,271.548 L 243.440,448.000 L 242.868,437.042 L 234.565,419.591 L 146.549,260.508"/>
    <path d="M 259.027,262.307 L 431.022,443.000 L 258.906,268.549"/>
    <path d="M 298.730,262.307 L 498.673,443.000 L 298.730,268.549"/>
    <path d="M 88.036,178.895 L 219.512,442.004 L 131.964,262.907"/>
    <path d="M 40.016,180.095 L 99.778,444.997 L 59.984,264.707"/>
    <path d="M 132.602,270.705 L 221.521,454.004 L 224.029,461.000 L 135.649,279.346"/>
    <path d="M 174.366,184.097 L 432.473,453.977 L 173.373,180.851"/>
    <path d="M 295.034,279.946 L 494.241,462.000 L 495.457,455.002 L 298.117,271.305"/>
    <path d="M 3.839,17.234 L 87.071,391.576 L 10.479,47.049"/>
    <path d="M 262.907,277.125 L 436.210,456.922 L 443.000,462.000 L 457.000,460.895 L 413.231,412.300 L 276.947,275.267"/>
    <path d="M 10.595,47.357 L 95.917,427.799 L 10.787,47.872"/>
    <path d="M 165.377,276.925 L 269.942,456.895 L 271.000,461.998 L 258.000,461.184 L 253.243,455.731 L 151.937,275.829"/>
    <path d="M 260.151,277.125 L 336.204,358.536 L 388.111,414.488 L 415.412,444.437 L 426.206,456.922 L 429.033,460.975 L 429.000,462.000 L 284.000,462.000 L 283.000,461.998 L 281.388,460.966 L 277.969,456.895 L 269.521,444.372 L 250.667,414.367 L 216.344,358.359 L 166.933,276.925"/>
    <path d="M 45.462,109.133 L 198.121,473.360 L 45.119,107.650"/>
    <path d="M 285.944,289.065 L 369.574,374.218 L 426.689,432.975 L 456.778,464.726 L 468.733,478.313 L 471.937,483.100 L 472.000,484.692 L 471.000,485.165 L 470.000,485.587 L 469.000,485.962 L 468.000,486.297 L 467.000,486.598 L 466.000,486.868 L 465.000,487.119 L 464.000,487.362 L 463.000,487.589 L 462.000,487.776 L 461.000,487.908 L 459.000,488.092 L 458.000,488.222 L 457.000,488.400 L 456.000,488.600 L 455.000,488.776 L 454.000,488.897 L 453.000,488.962 L 452.000,488.989 L 450.000,489.000 L 269.000,489.000 L 267.000,488.989 L 266.000,488.962 L 265.000,488.897 L 264.000,488.776 L 263.000,488.600 L 262.000,488.400 L 261.000,488.222 L 260.000,488.092 L 258.000,487.908 L 257.000,487.776 L 256.000,487.589 L 255.000,487.362 L 254.000,487.119 L 253.000,486.868 L 252.000,486.598 L 251.000,486.297 L 250.000,485.962 L 249.000,485.587 L 248.000,485.165 L 247.000,484.692 L 245.468,483.100 L 242.364,478.313 L 234.890,464.726 L 218.370,432.975 L 188.406,374.218 L 145.339,289.065"/>
    <path d="M 28.735,109.023 L 122.252,474.579 L 27.252,108.281"/>
    <path d="M 119.789,293.921 L 154.608,380.265 L 178.175,439.609 L 190.308,471.373 L 194.778,484.614 L 195.552,488.913 L 195.000,490.000 L 144.000,489.962 L 142.000,489.776 L 137.000,489.000 L 135.712,487.826 L 133.573,483.414 L 129.071,470.049 L 119.682,438.214 L 103.041,378.937 L 79.357,292.824"/>
  </g>
</svg>
