<?xml version="1.0" encoding="utf-8"?>
<svg xmlns="http://www.w3.org/2000/svg"
     width="350" height="350"
     viewBox="0 0 350 350">
  <rect width="100%" height="100%" fill="white"/>
  <g fill="none" stroke="black" stroke-width="2.0">
    <path d="M 212.410,242.256 C 213.441,241.627 220.288,255.634 219.618,257.000 L 199.015,269.574 L 212.410,242.256 Z"/>
    <path d="M 122.472,237.248 C 124.478,238.340 140.431,266.597 139.264,266.992 L 99.143,245.161 C 98.303,243.674 120.466,236.157 122.472,237.248 Z"/>
    <path d="M 202.000,233.161 L 190.633,262.847 C 189.133,264.589 172.929,269.442 172.000,268.000 L 172.051,234.008 Z"/>
    <path d="M 162.949,230.725 L 165.000,268.000 C 164.305,269.745 150.744,267.231 149.044,265.633 L 130.991,236.051 Z"/>
    <path d="M 212.015,200.426 C 214.464,201.323 259.072,216.596 260.992,218.374 C 262.913,220.153 249.606,233.619 250.426,236.000 L 277.385,266.000 C 278.421,267.739 272.873,271.977 271.153,270.788 L 243.000,242.212 C 240.759,241.273 227.164,251.511 226.331,252.000 Z"/>
    <path d="M 230.000,178.000 C 231.650,178.000 261.550,176.442 263.000,178.000 C 264.450,179.558 260.938,208.272 259.000,209.162 C 257.062,210.052 225.986,196.471 224.248,195.803 Z"/>
    <path d="M 212.992,178.051 L 215.949,189.992 C 215.307,190.568 200.611,187.782 200.161,189.571 C 199.711,191.361 208.149,224.119 206.941,225.788 C 205.733,227.457 177.718,225.236 176.000,222.949 C 174.282,220.662 172.743,182.196 172.571,180.051 Z"/>
    <path d="M 124.000,178.051 A 29.116,29.116 0 1,1 130.008,225.941 L 121.153,194.000 Z"/>
    <path d="M 107.000,178.000 A 30.792,30.792 0 0,1 94.000,237.538 L 79.787,221.000 L 69.205,180.051 Z"/>
    <path d="M 206.992,123.059 L 214.847,147.000 C 215.047,149.397 213.114,169.903 211.000,171.000 C 208.886,172.097 174.321,171.196 172.571,168.949 C 170.821,166.701 175.829,128.196 176.000,126.051 Z"/>
    <path d="M 130.008,123.059 L 161.000,126.051 C 162.750,126.498 164.829,129.855 165.000,132.000 C 165.171,134.145 166.642,167.101 164.429,168.949 C 162.215,170.796 122.910,168.949 120.725,168.949 Z"/>
    <path d="M 245.847,111.579 L 264.633,147.000 L 267.795,168.949 A 33.777,33.777 0 0,1 218.117,125.000 Z"/>
    <path d="M 91.153,111.579 C 92.491,112.003 116.815,117.280 117.905,120.051 C 118.995,122.822 115.144,164.453 112.949,167.000 C 110.753,169.547 76.195,171.250 74.000,171.000 C 71.805,170.750 68.754,164.150 69.044,162.000 L 79.787,128.000 Z"/>
    <path d="M 232.000,97.153 C 232.890,98.714 216.893,113.081 215.161,112.275 C 213.429,111.470 196.524,81.807 197.365,81.051 C 198.207,80.295 231.110,95.592 232.000,97.153 Z"/>
    <path d="M 137.000,79.418 C 138.166,79.814 124.365,110.531 122.472,111.752 C 120.580,112.973 98.416,105.456 99.143,103.839 L 137.000,79.418 Z"/>
    <path d="M 190.633,86.153 C 191.202,87.638 202.829,114.233 202.000,115.839 C 201.171,117.445 175.551,120.017 174.051,118.275 C 172.551,116.533 172.103,82.864 172.000,81.000 Z"/>
    <path d="M 165.000,81.000 C 164.897,82.864 164.449,116.533 162.949,118.275 C 161.449,120.017 136.029,117.203 135.000,115.839 C 133.971,114.475 142.006,92.242 142.374,91.000 Z"/>
    <path d="M 112.000,82.367 A 108.077,108.077 0 0,0 197.000,278.633 L 231.626,267.992 L 244.000,254.409 A 23.113,23.113 0 1,0 261.256,236.000 L 277.208,219.008 C 277.655,217.757 270.555,211.393 270.205,210.992 A 107.972,107.972 0 0,0 159.000,67.000 Z"/>
  </g>
</svg>
