<?xml version="1.0" encoding="utf-8"?>
<svg xmlns="http://www.w3.org/2000/svg"
     width="1800" height="1200"
     viewBox="0 0 1800 1200">
  <rect width="100%" height="100%" fill="white"/>
  <g fill="none" stroke="black" stroke-width="2.0">
    <path d="M 933.000,778.000 L 807.000,785.000 L 808.000,777.000 L 933.000,778.000 Z"/>
    <path d="M 806.000,776.000 L 807.000,787.000 L 933.000,786.000 L 806.000,776.000 Z"/>
    <path d="M 665.000,742.000 L 700.000,847.000 L 648.000,856.000 L 700.000,848.000 L 665.000,743.000 L 709.000,742.000 L 710.000,857.000 L 665.000,742.000 Z"/>
    <path d="M 524.000,742.000 L 441.000,786.000 L 523.000,742.000 L 489.000,795.000 L 524.000,742.000 Z"/>
    <path d="M 286.000,736.000 L 277.000,847.000 L 261.000,857.000 L 277.000,848.000 L 286.000,736.000 Z"/>
    <path d="M 1142.000,715.000 L 1141.000,786.000 L 1051.000,785.000 L 1142.000,715.000 Z"/>
    <path d="M 1142.000,712.000 L 1050.000,786.000 L 1142.000,786.000 L 1142.000,712.000 Z"/>
    <path d="M 120.000,671.000 L 120.000,857.000 L 133.000,857.000 L 121.000,672.000 L 156.000,680.000 L 120.000,671.000 Z"/>
    <path d="M 1246.000,647.000 L 1246.000,711.000 L 1254.000,648.000 L 1317.000,713.000 L 1246.000,647.000 Z"/>
    <path d="M 321.000,583.000 L 276.000,582.000 L 256.000,680.000 L 277.000,584.000 L 321.000,583.000 Z"/>
    <path d="M 1671.000,573.000 L 1678.000,712.000 L 1664.000,705.000 L 1671.000,573.000 Z"/>
    <path d="M 1670.000,572.000 L 1664.000,713.000 L 1679.000,713.000 L 1670.000,572.000 Z"/>
    <path d="M 489.000,529.000 L 489.000,485.000 L 482.000,530.000 L 479.000,491.000 L 224.000,491.000 L 476.000,491.000 L 479.000,529.000 L 489.000,529.000 Z"/>
    <path d="M 859.000,477.000 L 860.000,486.000 L 1131.000,485.000 L 1132.000,624.000 L 1142.000,624.000 L 1142.000,538.000 L 1140.000,624.000 L 1132.000,622.000 L 1133.000,485.000 L 860.000,485.000 L 859.000,477.000 Z"/>
    <path d="M 489.000,465.000 L 478.000,483.000 L 422.000,483.000 L 420.000,473.000 L 224.000,483.000 L 479.000,483.000 L 489.000,465.000 Z"/>
    <path d="M 214.000,464.000 L 223.000,530.000 L 224.000,465.000 L 214.000,464.000 Z"/>
    <path d="M 1144.000,536.000 L 1245.000,535.000 L 1246.000,594.000 L 1286.000,589.000 L 1286.000,580.000 L 1255.000,579.000 L 1257.000,376.000 L 1551.000,376.000 L 1255.000,376.000 L 1255.000,580.000 L 1285.000,580.000 L 1286.000,588.000 L 1247.000,593.000 L 1245.000,535.000 L 1144.000,536.000 Z"/>
    <path d="M 1133.000,376.000 L 1100.000,376.000 L 1133.000,377.000 L 1133.000,475.000 L 1131.000,477.000 L 893.000,477.000 L 891.000,379.000 L 892.000,477.000 L 1133.000,477.000 L 1133.000,376.000 Z"/>
    <path d="M 341.000,376.000 L 412.000,427.000 L 475.000,377.000 L 413.000,426.000 L 412.000,376.000 L 341.000,376.000 Z"/>
    <path d="M 1100.000,368.000 L 1142.000,369.000 L 1142.000,526.000 L 1245.000,527.000 L 1142.000,525.000 L 1142.000,367.000 L 1100.000,368.000 Z"/>
    <path d="M 1246.000,359.000 L 1253.000,359.000 L 1255.000,368.000 L 1678.000,368.000 L 1679.000,482.000 L 1678.000,488.000 L 1670.000,489.000 L 1670.000,376.000 L 1568.000,377.000 L 1670.000,377.000 L 1670.000,490.000 L 1679.000,491.000 L 1679.000,368.000 L 1257.000,368.000 L 1255.000,358.000 L 1246.000,359.000 Z"/>
    <path d="M 185.000,355.000 L 185.000,376.000 L 187.000,356.000 L 487.000,368.000 L 489.000,406.000 L 489.000,367.000 L 196.000,368.000 L 185.000,355.000 Z"/>
    <path d="M 789.000,261.000 L 789.000,306.000 L 892.000,307.000 L 789.000,315.000 L 892.000,315.000 L 789.000,261.000 Z"/>
    <path d="M 779.000,206.000 L 780.000,440.000 L 569.000,441.000 L 568.000,397.000 L 560.000,397.000 L 560.000,486.000 L 559.000,401.000 L 561.000,397.000 L 568.000,400.000 L 568.000,441.000 L 780.000,441.000 L 779.000,206.000 Z"/>
    <path d="M 607.000,206.000 L 568.000,206.000 L 566.000,344.000 L 559.000,206.000 L 559.000,345.000 L 568.000,207.000 L 607.000,206.000 Z"/>
    <path d="M 1246.000,155.000 L 1246.000,278.000 L 1133.000,279.000 L 1133.000,321.000 L 1143.000,288.000 L 1246.000,293.000 L 1133.000,319.000 L 1134.000,279.000 L 1246.000,279.000 L 1246.000,155.000 Z"/>
    <path d="M 950.000,147.000 L 1109.000,147.000 L 1108.000,156.000 L 951.000,155.000 L 1111.000,156.000 L 1112.000,147.000 L 950.000,147.000 Z"/>
    <path d="M 1228.000,146.000 L 1255.000,148.000 L 1255.000,300.000 L 1255.000,147.000 L 1228.000,146.000 Z"/>
    <path d="M 396.000,124.000 L 480.000,133.000 L 479.000,315.000 L 489.000,315.000 L 488.000,208.000 L 480.000,313.000 L 489.000,206.000 L 480.000,132.000 L 396.000,124.000 Z"/>
    <path d="M 407.000,123.000 L 489.000,192.000 L 489.000,123.000 L 407.000,123.000 Z"/>
    <path d="M 267.000,123.000 L 185.000,123.000 L 185.000,274.000 L 194.000,274.000 L 185.000,125.000 L 267.000,123.000 Z"/>
  </g>
</svg>
