<?xml version="1.0" encoding="utf-8"?>
<svg xmlns="http://www.w3.org/2000/svg"
     width="1800" height="1200"
     viewBox="0 0 1800 1200">
  <rect width="100%" height="100%" fill="white"/>
  <g fill="none" stroke="black" stroke-width="2.0">
    <path d="M 268.000,123.000 L 186.000,123.000 L 185.000,124.000 L 185.000,272.000"/>
    <path d="M 393.000,123.000 L 279.000,123.000"/>
    <path d="M 487.000,123.000 L 397.000,123.000"/>
    <path d="M 223.000,132.000 L 278.000,124.000"/>
    <path d="M 488.000,124.000 L 489.000,204.000"/>
    <path d="M 479.000,132.000 L 397.000,132.000 L 396.000,131.000"/>
    <path d="M 479.000,204.000 L 480.000,133.000"/>
    <path d="M 829.000,154.000 L 781.000,146.000 L 780.000,195.000 L 741.000,196.000"/>
    <path d="M 1110.000,154.000 L 1110.000,147.000 L 960.000,146.000 L 948.000,147.000 L 947.000,154.000"/>
    <path d="M 1230.000,146.000 L 1254.000,146.000 L 1255.000,147.000 L 1255.000,298.000"/>
    <path d="M 1246.000,278.000 L 1246.000,156.000 L 1229.000,155.000 L 1228.000,148.000"/>
    <path d="M 948.000,155.000 L 1109.000,155.000"/>
    <path d="M 542.000,196.000 L 601.000,196.000"/>
    <path d="M 567.000,343.000 L 568.000,342.000 L 568.000,206.000 L 569.000,205.000 L 611.000,205.000"/>
    <path d="M 479.000,313.000 L 480.000,308.000 L 479.000,206.000"/>
    <path d="M 488.000,313.000 L 488.000,206.000"/>
    <path d="M 559.000,343.000 L 559.000,206.000"/>
    <path d="M 779.000,206.000 L 730.000,206.000"/>
    <path d="M 780.000,440.000 L 780.000,207.000"/>
    <path d="M 890.000,306.000 L 789.000,306.000 L 788.000,305.000 L 788.000,224.000"/>
    <path d="M 1245.000,279.000 L 1134.000,279.000 L 1133.000,280.000 L 1133.000,319.000"/>
    <path d="M 1143.000,288.000 L 1245.000,288.000"/>
    <path d="M 788.000,484.000 L 788.000,316.000 L 790.000,314.000 L 890.000,314.000"/>
    <path d="M 487.000,367.000 L 198.000,367.000 L 197.000,368.000 L 195.000,368.000 L 194.000,367.000 L 194.000,357.000"/>
    <path d="M 1246.000,525.000 L 1246.000,360.000"/>
    <path d="M 1254.000,359.000 L 1255.000,360.000 L 1255.000,367.000 L 1256.000,368.000 L 1258.000,368.000 L 1259.000,367.000 L 1678.000,367.000 L 1679.000,368.000 L 1679.000,481.000 L 1678.000,482.000 L 1678.000,489.000 L 1677.000,490.000 L 1676.000,489.000 L 1671.000,489.000"/>
    <path d="M 860.000,368.000 L 927.000,375.000"/>
    <path d="M 1141.000,368.000 L 1142.000,374.000 L 1141.000,377.000 L 1141.000,523.000 L 1142.000,525.000"/>
    <path d="M 186.000,376.000 L 214.000,410.000"/>
    <path d="M 225.000,376.000 L 411.000,376.000 L 412.000,377.000 L 412.000,425.000"/>
    <path d="M 478.000,376.000 L 422.000,376.000 L 420.000,425.000"/>
    <path d="M 926.000,376.000 L 893.000,376.000 L 891.000,378.000 L 892.000,476.000"/>
    <path d="M 1100.000,376.000 L 1132.000,376.000 L 1133.000,377.000 L 1133.000,476.000 L 1132.000,477.000 L 1130.000,477.000 L 1129.000,476.000 L 895.000,476.000 L 894.000,477.000 L 893.000,477.000"/>
    <path d="M 1670.000,488.000 L 1670.000,377.000 L 1669.000,376.000 L 1256.000,376.000 L 1255.000,377.000 L 1255.000,579.000 L 1256.000,580.000 L 1285.000,580.000"/>
    <path d="M 559.000,484.000 L 559.000,399.000"/>
    <path d="M 779.000,441.000 L 569.000,441.000"/>
    <path d="M 568.000,484.000 L 568.000,451.000 L 569.000,450.000 L 778.000,450.000"/>
    <path d="M 222.000,464.000 L 215.000,528.000"/>
    <path d="M 411.000,482.000 L 224.000,482.000 L 223.000,481.000 L 223.000,465.000"/>
    <path d="M 488.000,465.000 L 488.000,528.000"/>
    <path d="M 422.000,482.000 L 479.000,482.000"/>
    <path d="M 1133.000,526.000 L 1133.000,486.000 L 1132.000,485.000 L 860.000,485.000"/>
    <path d="M 223.000,528.000 L 223.000,493.000 L 225.000,491.000 L 479.000,491.000 L 480.000,492.000 L 480.000,494.000 L 479.000,495.000 L 479.000,512.000 L 480.000,513.000 L 479.000,528.000"/>
    <path d="M 1245.000,526.000 L 1143.000,526.000"/>
    <path d="M 1133.000,528.000 L 1132.000,623.000 L 1140.000,623.000"/>
    <path d="M 1246.000,593.000 L 1245.000,535.000 L 1143.000,535.000 L 1141.000,544.000 L 1141.000,614.000 L 1142.000,615.000 L 1141.000,622.000"/>
    <path d="M 1670.000,702.000 L 1670.000,574.000"/>
    <path d="M 1679.000,711.000 L 1679.000,582.000 L 1678.000,581.000 L 1678.000,573.000"/>
    <path d="M 122.000,583.000 L 214.000,583.000 L 222.000,582.000"/>
    <path d="M 222.000,591.000 L 131.000,591.000 L 129.000,611.000"/>
    <path d="M 276.000,679.000 L 276.000,592.000"/>
    <path d="M 285.000,593.000 L 285.000,687.000"/>
    <path d="M 1246.000,649.000 L 1246.000,710.000"/>
    <path d="M 1255.000,649.000 L 1255.000,702.000"/>
    <path d="M 120.000,855.000 L 120.000,673.000"/>
    <path d="M 155.000,689.000 L 131.000,688.000 L 129.000,690.000 L 129.000,847.000 L 143.000,848.000"/>
    <path d="M 1256.000,703.000 L 1315.000,703.000"/>
    <path d="M 1132.000,775.000 L 1140.000,712.000"/>
    <path d="M 1247.000,711.000 L 1315.000,712.000"/>
    <path d="M 1141.000,713.000 L 1142.000,783.000 L 1141.000,786.000 L 1051.000,786.000 L 1050.000,778.000"/>
    <path d="M 276.000,847.000 L 276.000,738.000"/>
    <path d="M 285.000,737.000 L 322.000,777.000"/>
    <path d="M 665.000,749.000 L 708.000,742.000"/>
    <path d="M 530.000,848.000 L 488.000,847.000 L 488.000,752.000 L 490.000,750.000 L 522.000,750.000"/>
    <path d="M 700.000,847.000 L 700.000,751.000 L 699.000,750.000 L 666.000,750.000"/>
    <path d="M 808.000,776.000 L 931.000,776.000"/>
    <path d="M 1052.000,776.000 L 1131.000,776.000"/>
    <path d="M 806.000,778.000 L 806.000,785.000 L 807.000,786.000 L 931.000,786.000"/>
    <path d="M 285.000,856.000 L 285.000,787.000 L 322.000,785.000"/>
    <path d="M 442.000,785.000 L 480.000,787.000 L 479.000,855.000"/>
    <path d="M 439.000,786.000 L 326.000,786.000"/>
    <path d="M 709.000,856.000 L 709.000,788.000"/>
    <path d="M 447.000,792.000 L 313.000,792.000"/>
    <path d="M 1060.000,793.000 L 925.000,793.000"/>
    <path d="M 650.000,848.000 L 699.000,848.000"/>
    <path d="M 255.000,857.000 L 152.000,857.000"/>
    <path d="M 480.000,856.000 L 530.000,856.000"/>
    <path d="M 647.000,857.000 L 534.000,857.000"/>
    <path d="M 520.000,858.000 L 520.000,859.000 Z"/>
    <path d="M 133.000,858.000 L 133.000,859.000 Z"/>
    <path d="M 923.000,788.000 L 923.000,789.000 Z"/>
    <path d="M 313.000,787.000 L 313.000,788.000 Z"/>
    <path d="M 1472.000,714.000 L 1679.000,852.000 L 1473.000,715.000 L 1472.000,714.000 Z"/>
    <path d="M 1468.000,714.000 L 1472.000,714.000 L 1677.000,853.000 L 1257.000,853.000 L 1467.000,714.000 L 1468.000,714.000 Z"/>
    <path d="M 1255.000,714.000 L 1466.000,714.000 L 1255.000,715.000 L 1255.000,714.000 Z"/>
    <path d="M 446.000,690.000 L 286.000,776.000 L 446.000,691.000 L 446.000,690.000 Z"/>
    <path d="M 613.000,579.000 L 612.000,579.000 Z"/>
    <path d="M 857.000,571.000 L 858.000,571.000 Z"/>
    <path d="M 615.000,549.000 L 573.000,658.000 L 639.000,702.000 L 616.000,549.000 L 615.000,549.000 Z"/>
    <path d="M 1146.000,484.000 L 1246.000,524.000 L 1146.000,485.000 L 1146.000,484.000 Z"/>
    <path d="M 1391.000,472.000 L 1449.000,630.000 L 1377.000,596.000 L 1390.000,472.000 L 1391.000,472.000 Z"/>
    <path d="M 1396.000,402.000 L 1395.000,402.000 Z"/>
    <path d="M 1592.000,395.000 L 1541.000,670.000 L 1532.000,600.000 L 1609.000,597.000 L 1549.000,595.000 L 1564.000,470.000 L 1623.000,483.000 L 1620.000,665.000 L 1537.000,661.000 L 1626.000,599.000 L 1630.000,659.000 L 1560.000,672.000 L 1631.000,653.000 L 1593.000,395.000 L 1592.000,395.000 Z"/>
    <path d="M 1428.000,385.000 L 1362.000,408.000 L 1360.000,654.000 L 1458.000,658.000 L 1368.000,671.000 L 1457.000,663.000 L 1456.000,407.000 L 1360.000,426.000 L 1429.000,385.000 L 1428.000,385.000 Z"/>
    <path d="M 342.000,379.000 L 342.000,380.000 Z"/>
    <path d="M 1256.000,378.000 L 1668.000,377.000 L 1669.000,702.000 L 1257.000,703.000 L 1295.000,597.000 L 1256.000,644.000 L 1256.000,590.000 L 1287.000,589.000 L 1256.000,578.000 L 1256.000,379.000 L 1256.000,378.000 Z"/>
    <path d="M 268.000,378.000 L 478.000,400.000 L 479.000,481.000 L 225.000,482.000 L 268.000,379.000 L 268.000,378.000 Z"/>
    <path d="M 224.000,378.000 L 267.000,476.000 L 224.000,379.000 L 224.000,378.000 Z"/>
    <path d="M 103.000,351.000 L 214.000,378.000 L 213.000,582.000 L 121.000,581.000 L 135.000,367.000 L 103.000,582.000 L 103.000,352.000 L 103.000,351.000 Z"/>
    <path d="M 86.000,333.000 L 185.000,333.000 L 102.000,583.000 L 85.000,334.000 L 86.000,333.000 Z"/>
    <path d="M 1142.000,290.000 L 1246.000,290.000 L 1145.000,525.000 L 1142.000,291.000 L 1142.000,290.000 Z"/>
    <path d="M 664.000,262.000 L 664.000,263.000 Z"/>
    <path d="M 662.000,260.000 L 778.000,259.000 L 779.000,364.000 L 662.000,261.000 L 662.000,260.000 Z"/>
    <path d="M 569.000,207.000 L 778.000,206.000 L 662.000,365.000 L 779.000,411.000 L 570.000,412.000 L 569.000,208.000 L 569.000,207.000 Z"/>
    <path d="M 601.000,192.000 L 601.000,193.000 Z"/>
    <path d="M 364.000,171.000 L 364.000,172.000 Z"/>
    <path d="M 443.000,169.000 L 365.000,274.000 L 444.000,170.000 L 443.000,169.000 Z"/>
    <path d="M 791.000,158.000 L 913.000,189.000 L 791.000,159.000 L 791.000,158.000 Z"/>
    <path d="M 977.000,157.000 L 977.000,158.000 Z"/>
    <path d="M 918.000,153.000 L 1080.000,193.000 L 1079.000,271.000 L 976.000,274.000 L 1246.000,157.000 L 1246.000,278.000 L 1097.000,367.000 L 1131.000,476.000 L 892.000,475.000 L 1098.000,442.000 L 928.000,441.000 L 892.000,305.000 L 789.000,304.000 L 819.000,191.000 L 945.000,155.000 L 831.000,154.000 L 917.000,153.000 L 918.000,153.000 Z"/>
    <path d="M 1082.000,142.000 L 1082.000,143.000 Z"/>
    <path d="M 819.000,142.000 L 819.000,143.000 Z"/>
    <path d="M 229.000,133.000 L 477.000,132.000 L 362.000,168.000 L 362.000,274.000 L 479.000,366.000 L 196.000,367.000 L 228.000,133.000 L 229.000,133.000 Z"/>
    <path d="M 613.000,124.000 L 779.000,194.000 L 489.000,198.000 L 613.000,125.000 L 613.000,124.000 Z"/>
    <path d="M 267.000,118.000 L 267.000,119.000 Z"/>
    <path d="M 613.000,106.000 L 613.000,107.000 Z"/>
    <path d="M 604.000,71.000 L 604.000,72.000 Z"/>
    <path d="M 603.000,70.000 L 602.000,123.000 L 185.000,122.000 L 185.000,331.000 L 85.000,332.000 L 63.000,592.000 L 120.000,593.000 L 120.000,857.000 L 273.000,863.000 L 287.000,787.000 L 478.000,787.000 L 479.000,857.000 L 699.000,857.000 L 690.000,993.000 L 1148.000,992.000 L 1143.000,880.000 L 1260.000,888.000 L 1142.000,880.000 L 1121.000,984.000 L 710.000,967.000 L 914.000,965.000 L 710.000,951.000 L 712.000,787.000 L 720.000,837.000 L 772.000,786.000 L 1142.000,787.000 L 1135.000,668.000 L 1130.000,776.000 L 771.000,779.000 L 722.000,837.000 L 711.000,741.000 L 665.000,741.000 L 664.000,847.000 L 525.000,847.000 L 480.000,583.000 L 439.000,584.000 L 443.000,742.000 L 242.000,715.000 L 276.000,846.000 L 131.000,847.000 L 131.000,592.000 L 276.000,641.000 L 238.000,710.000 L 330.000,680.000 L 321.000,582.000 L 231.000,592.000 L 263.000,639.000 L 167.000,579.000 L 184.000,543.000 L 489.000,530.000 L 489.000,367.000 L 431.000,364.000 L 489.000,315.000 L 492.000,151.000 L 616.000,388.000 L 558.000,397.000 L 558.000,486.000 L 789.000,486.000 L 789.000,316.000 L 884.000,315.000 L 836.000,317.000 L 885.000,366.000 L 859.000,486.000 L 1131.000,486.000 L 1140.000,668.000 L 1142.000,538.000 L 1246.000,537.000 L 1199.000,604.000 L 1246.000,646.000 L 1255.000,860.000 L 1679.000,854.000 L 1679.000,367.000 L 1257.000,367.000 L 1256.000,146.000 L 816.000,146.000 L 815.000,88.000 L 799.000,146.000 L 797.000,105.000 L 613.000,89.000 L 813.000,88.000 L 613.000,71.000 L 832.000,70.000 L 833.000,139.000 L 833.000,70.000 L 604.000,70.000 L 603.000,70.000 Z"/>
  </g>
</svg>
