<?xml version="1.0" encoding="utf-8"?>
<svg xmlns="http://www.w3.org/2000/svg"
     width="400" height="400"
     viewBox="0 0 400 400">
  <rect width="100%" height="100%" fill="white"/>
  <g fill="none" stroke="black" stroke-width="0.1">
    <path d="M 301.000,26.000 L 299.000,27.000 L 292.000,40.000"/>
    <path d="M 313.000,42.000 L 332.000,75.000"/>
    <path d="M 287.000,49.000 L 276.000,68.000"/>
    <path d="M 189.000,75.000 L 189.000,70.000 L 188.000,69.000 L 188.000,66.000 L 184.000,52.000"/>
    <path d="M 387.000,56.000 L 387.000,57.000 L 386.000,58.000 L 384.000,58.000 L 383.000,57.000 L 336.000,57.000 L 335.000,58.000 L 333.000,58.000 L 332.000,57.000 L 332.000,56.000"/>
    <path d="M 98.000,76.000 L 140.000,76.000"/>
    <path d="M 142.000,76.000 L 149.000,77.000"/>
    <path d="M 151.000,77.000 L 152.000,76.000 L 188.000,76.000"/>
    <path d="M 222.000,76.000 L 192.000,76.000"/>
    <path d="M 200.000,117.000 L 200.000,112.000 L 198.000,108.000 L 198.000,105.000 L 197.000,104.000 L 197.000,101.000 L 196.000,100.000 L 191.000,77.000"/>
    <path d="M 262.000,95.000 L 262.000,92.000 L 271.000,77.000"/>
    <path d="M 46.000,103.000 L 53.000,99.000 L 59.000,98.000 L 60.000,97.000 L 69.000,97.000 L 70.000,98.000 L 76.000,99.000 L 81.000,102.000"/>
    <path d="M 341.000,96.000 L 263.000,96.000"/>
    <path d="M 98.000,133.000 L 98.000,129.000 L 97.000,128.000 L 96.000,119.000 L 93.000,114.000"/>
    <path d="M 199.000,118.000 L 193.000,114.000"/>
    <path d="M 34.000,116.000 L 32.000,119.000 L 31.000,125.000 L 30.000,126.000 L 30.000,137.000 L 31.000,138.000 L 31.000,141.000 L 36.000,150.000"/>
    <path d="M 270.000,226.000 L 270.000,128.000 L 271.000,127.000 L 332.000,127.000"/>
    <path d="M 333.000,128.000 L 333.000,226.000"/>
    <path d="M 204.000,130.000 L 208.000,144.000 L 208.000,147.000 L 209.000,148.000 L 209.000,151.000 L 210.000,152.000 L 210.000,155.000 L 212.000,159.000 L 214.000,170.000 L 215.000,171.000"/>
    <path d="M 97.000,134.000 L 82.000,133.000 L 81.000,134.000 L 78.000,134.000 L 71.000,138.000"/>
    <path d="M 97.000,139.000 L 95.000,146.000 L 93.000,149.000"/>
    <path d="M 62.000,148.000 L 58.000,157.000 L 58.000,163.000"/>
    <path d="M 114.000,165.000 L 113.000,152.000 L 111.000,148.000"/>
    <path d="M 163.000,168.000 L 163.000,164.000 L 162.000,163.000 L 162.000,152.000 L 164.000,150.000 L 168.000,150.000 L 170.000,154.000 L 170.000,160.000"/>
    <path d="M 82.000,160.000 L 74.000,164.000 L 69.000,164.000 L 68.000,165.000 L 60.000,165.000"/>
    <path d="M 153.000,165.000 L 147.000,161.000 L 143.000,162.000"/>
    <path d="M 182.000,163.000 L 189.000,162.000"/>
    <path d="M 48.000,161.000 L 57.000,164.000"/>
    <path d="M 168.000,168.000 L 169.000,162.000"/>
    <path d="M 187.000,170.000 L 190.000,163.000"/>
    <path d="M 59.000,166.000 L 60.000,172.000 L 65.000,179.000"/>
    <path d="M 113.000,167.000 L 110.000,176.000"/>
    <path d="M 159.000,173.000 L 158.000,174.000 L 152.000,173.000 L 143.000,168.000"/>
    <path d="M 185.000,171.000 L 181.000,173.000 L 173.000,173.000"/>
    <path d="M 158.000,180.000 L 153.000,180.000 L 146.000,184.000"/>
    <path d="M 185.000,183.000 L 179.000,180.000 L 174.000,180.000"/>
    <path d="M 187.000,184.000 L 190.000,187.000 L 189.000,192.000 L 179.000,189.000"/>
    <path d="M 81.000,188.000 L 72.000,185.000"/>
    <path d="M 92.000,188.000 L 101.000,185.000"/>
    <path d="M 168.000,186.000 L 169.000,192.000"/>
    <path d="M 83.000,189.000 L 90.000,189.000"/>
    <path d="M 164.000,187.000 L 162.000,191.000 L 162.000,201.000 L 164.000,204.000 L 168.000,204.000 L 170.000,200.000 L 170.000,194.000"/>
    <path d="M 152.000,190.000 L 143.000,192.000"/>
    <path d="M 98.000,214.000 L 81.000,204.000"/>
    <path d="M 64.000,222.000 L 57.000,234.000"/>
    <path d="M 217.000,246.000 L 217.000,228.000 L 218.000,227.000 L 269.000,227.000"/>
    <path d="M 332.000,227.000 L 271.000,227.000"/>
    <path d="M 333.000,246.000 L 333.000,228.000"/>
    <path d="M 218.000,247.000 L 332.000,247.000"/>
    <path d="M 391.000,247.000 L 334.000,247.000"/>
    <path d="M 217.000,248.000 L 217.000,342.000 L 218.000,343.000 L 332.000,343.000 L 333.000,342.000 L 333.000,248.000"/>
    <path d="M 46.000,255.000 L 42.000,260.000"/>
    <path d="M 96.000,281.000 L 89.000,278.000 L 87.000,276.000 L 82.000,274.000 L 80.000,272.000 L 75.000,270.000 L 66.000,264.000 L 59.000,261.000 L 52.000,256.000 L 48.000,255.000"/>
    <path d="M 108.000,263.000 L 101.000,275.000"/>
    <path d="M 29.000,283.000 L 36.000,271.000"/>
    <path d="M 20.000,299.000 L 18.000,306.000"/>
    <path d="M 93.000,307.000 L 97.000,300.000"/>
    <path d="M 63.000,332.000 L 69.000,331.000"/>
    <path d="M 122.000,364.000 L 128.000,354.000"/>
    <path d="M 112.000,361.000 L 120.000,365.000"/>
  </g>
</svg>
