<?xml version="1.0" encoding="utf-8"?>
<svg xmlns="http://www.w3.org/2000/svg"
     width="400" height="400"
     viewBox="0 0 400 400">
  <rect width="100%" height="100%" fill="white"/>
  <g fill="none" stroke="black" stroke-width="2.0">
    <path d="M 387.000,56.000 L 386.000,58.000 L 333.000,58.000 L 332.000,56.000"/>
    <path d="M 313.000,42.000 L 332.000,75.000"/>
    <path d="M 276.000,68.000 L 287.000,49.000"/>
    <path d="M 342.000,96.000 L 262.000,96.000"/>
    <path d="M 302.000,26.000 L 292.000,40.000"/>
    <path d="M 262.000,96.000 L 271.000,77.000"/>
    <path d="M 150.000,77.000 L 189.000,76.000"/>
    <path d="M 200.000,118.000 L 200.000,112.000 L 191.000,76.000"/>
    <path d="M 222.000,76.000 L 191.000,76.000"/>
    <path d="M 205.000,127.000 L 204.000,131.000 L 215.000,171.000"/>
    <path d="M 141.000,76.000 L 98.000,76.000"/>
    <path d="M 189.000,76.000 L 184.000,52.000"/>
    <path d="M 71.000,138.000 L 82.000,133.000 L 98.000,134.000"/>
    <path d="M 111.000,148.000 L 114.000,165.000"/>
    <path d="M 82.000,160.000 L 74.000,164.000 L 59.000,166.000 L 65.000,179.000"/>
    <path d="M 81.000,102.000 L 60.000,97.000 L 46.000,103.000"/>
    <path d="M 62.000,148.000 L 57.000,164.000 L 48.000,161.000"/>
    <path d="M 34.000,116.000 L 30.000,137.000 L 36.000,150.000"/>
    <path d="M 98.000,134.000 L 93.000,114.000"/>
    <path d="M 333.000,227.000 L 333.000,128.000"/>
    <path d="M 333.000,227.000 L 270.000,227.000"/>
    <path d="M 333.000,227.000 L 333.000,247.000"/>
    <path d="M 332.000,127.000 L 270.000,128.000 L 270.000,227.000"/>
    <path d="M 270.000,227.000 L 218.000,227.000 L 217.000,247.000"/>
    <path d="M 333.000,247.000 L 391.000,247.000"/>
    <path d="M 217.000,247.000 L 333.000,247.000"/>
    <path d="M 217.000,247.000 L 218.000,343.000 L 332.000,343.000 L 333.000,247.000"/>
    <path d="M 159.000,181.000 L 146.000,184.000"/>
    <path d="M 164.000,187.000 L 164.000,204.000 L 170.000,194.000"/>
    <path d="M 143.000,168.000 L 159.000,173.000"/>
    <path d="M 179.000,189.000 L 187.000,184.000"/>
    <path d="M 163.000,169.000 L 164.000,150.000 L 170.000,160.000"/>
    <path d="M 96.000,281.000 L 52.000,256.000 L 47.000,255.000"/>
    <path d="M 81.000,204.000 L 98.000,214.000"/>
  </g>
</svg>
